<?xml version="1.0" standalone="no"?>
<!DOCTYPE svg PUBLIC "-//W3C//DTD SVG 20010904//EN"
 "http://www.w3.org/TR/2001/REC-SVG-20010904/DTD/svg10.dtd">
<svg version="1.0" xmlns="http://www.w3.org/2000/svg"
 width="894.000000pt" height="894.000000pt" viewBox="0 0 894.000000 894.000000"
 preserveAspectRatio="xMidYMid meet">
<metadata>
Created by potrace 1.14, written by Peter Selinger 2001-2017
</metadata>
<g transform="translate(0.000000,894.000000) scale(0.100000,-0.100000)"
fill="#000000" stroke="none">
<path d="M0 4470 l0 -4470 4470 0 4470 0 0 4470 0 4470 -4470 0 -4470 0 0
-4470z m4458 3928 c-5 -16 -158 -24 -158 -9 0 15 20 19 93 20 51 1 68 -2 65
-11z m-198 -12 c0 -10 -23 -16 -92 -21 -51 -4 -142 -13 -203 -21 -60 -7 -118
-14 -127 -14 -20 0 -25 30 -5 31 6 0 73 9 147 19 171 23 280 26 280 6z m925
-31 c196 -27 335 -59 335 -77 0 -12 4 -13 -273 36 -109 18 -201 36 -204 39 -7
8 7 28 15 23 4 -2 61 -12 127 -21z m224 -115 c51 -11 98 -23 104 -27 22 -13
-21 -21 -64 -11 -24 5 -104 20 -177 33 -74 13 -136 26 -139 29 -28 28 75 19
276 -24z m-1941 28 c-4 -12 -86 -37 -121 -38 -32 0 -12 24 29 37 53 16 97 16
92 1z m2292 -38 c74 -22 136 -40 137 -40 2 0 3 -7 3 -15 0 -21 -10 -19 -133
20 -59 19 -123 37 -142 41 -36 6 -50 34 -17 34 9 0 78 -18 152 -40z m-962 -17
c2 -9 -8 -13 -31 -13 -41 0 -67 8 -67 22 0 14 93 5 98 -9z m-1580 -9 c-2 -12
-51 -33 -163 -71 -189 -65 -205 -69 -205 -55 0 6 10 17 23 24 22 12 325 117
340 118 5 0 7 -7 5 -16z m494 -29 c3 -11 -79 -33 -129 -34 -18 -1 -33 3 -33 9
0 8 21 15 95 33 30 8 65 3 67 -8z m416 -27 c-3 -9 -66 -21 -184 -35 -150 -19
-310 -46 -411 -70 -40 -9 -26 23 15 35 110 33 410 79 530 81 39 1 53 -2 50
-11z m-683 -27 c-6 -5 -38 -17 -73 -26 -199 -51 -550 -179 -766 -279 -90 -42
-116 -48 -116 -27 0 11 207 108 362 170 235 93 574 197 593 180 5 -6 5 -12 0
-18z m2623 4 c30 -14 60 -25 67 -25 7 0 44 -14 81 -30 49 -22 64 -34 56 -42
-8 -8 -35 -1 -99 25 -48 19 -109 43 -135 52 -27 10 -48 24 -48 31 0 20 18 17
78 -11z m-1159 -14 c51 -6 79 -14 87 -26 10 -13 17 -14 33 -6 29 16 51 14 94
-9 20 -11 43 -20 49 -20 7 0 24 -9 38 -20 14 -11 37 -20 51 -20 15 0 39 -10
55 -22 22 -18 41 -23 94 -23 60 0 65 -2 68 -22 3 -20 6 -21 23 -12 36 19 82 7
99 -26 8 -16 20 -33 25 -37 17 -13 52 -9 65 7 7 8 19 15 27 15 21 0 74 -42 84
-68 8 -20 11 -21 31 -10 13 7 26 18 30 23 4 6 29 11 55 12 26 1 71 4 98 6 28
2 55 0 62 -5 7 -6 41 -11 75 -13 35 -1 82 -8 105 -14 45 -12 103 -55 103 -76
0 -7 7 -18 15 -25 13 -10 15 -9 15 9 0 11 3 21 6 21 15 0 225 -125 374 -223
196 -128 233 -171 172 -196 -34 -14 -98 -5 -132 19 -14 10 -59 34 -100 55 -41
21 -87 46 -102 57 -16 11 -28 16 -28 11 0 -10 197 -142 257 -172 40 -20 125
-112 146 -158 13 -28 27 -30 20 -3 -6 24 10 26 32 4 9 -9 13 -24 10 -35 -8
-23 8 -54 48 -96 17 -18 28 -36 24 -39 -14 -15 -87 17 -109 47 -20 26 -184
166 -278 235 -16 12 -27 24 -24 27 6 6 -18 47 -28 47 -3 0 -8 -7 -10 -15 -2
-11 -26 2 -88 45 -47 33 -98 71 -113 84 -16 14 -38 26 -50 28 -20 3 -23 10
-27 73 -3 41 -8 65 -13 58 -11 -17 -37 -16 -37 0 0 8 -8 21 -18 30 -16 14 -19
14 -42 -3 -27 -21 -75 -26 -100 -10 -8 5 -17 31 -20 62 l-5 53 -52 10 c-28 5
-55 13 -59 18 -4 4 -37 7 -74 7 -37 0 -91 5 -120 10 -45 9 -56 8 -71 -6 -17
-15 -25 -15 -81 -4 -44 10 -71 22 -88 40 -35 38 -106 67 -196 80 -42 7 -87 16
-99 22 -16 7 -29 7 -41 0 -14 -8 -28 -5 -59 11 -27 14 -70 23 -135 29 -52 4
-169 14 -260 21 -103 8 -173 19 -187 27 -19 12 -24 12 -42 -4 -28 -26 -103
-33 -120 -12 -7 9 -20 16 -28 16 -8 0 -18 12 -24 28 -8 25 -13 27 -54 24 -33
-3 -48 -10 -59 -27 -17 -26 -48 -34 -241 -60 -66 -9 -154 -21 -195 -27 -89
-12 -213 -43 -505 -124 -70 -19 -202 -36 -225 -29 -10 3 -30 -1 -44 -10 -17
-11 -44 -16 -93 -14 -37 1 -84 -2 -104 -6 -43 -8 -64 11 -23 21 14 4 47 23 72
42 85 64 129 73 312 59 49 -3 59 -1 88 25 18 15 40 29 50 30 9 0 23 2 30 2 7
1 18 12 25 26 10 20 26 28 87 42 93 20 200 24 182 6 -23 -23 -12 -31 36 -24
93 13 207 17 231 9 30 -12 141 22 141 43 0 9 12 14 36 14 27 0 41 7 60 29 24
29 25 30 122 26 53 -2 107 -7 119 -12 12 -4 68 -5 125 -2 57 4 122 5 146 2 36
-5 42 -3 36 11 -7 19 18 20 135 7z m594 -83 c61 -13 76 -28 28 -28 -53 0 -131
23 -131 38 0 10 7 13 23 8 12 -3 48 -11 80 -18z m-683 -118 c0 -5 -2 -10 -4
-10 -3 0 -8 5 -11 10 -3 6 -1 10 4 10 6 0 11 -4 11 -10z m38 -78 c2 -7 -3 -12
-12 -12 -9 0 -16 7 -16 16 0 17 22 14 28 -4z m1895 -38 c87 -56 83 -52 71 -64
-11 -11 -164 82 -164 100 0 18 21 11 93 -36z m-3383 -23 c0 -12 53 -21 66 -10
10 9 73 -29 74 -44 0 -5 -5 -5 -11 -1 -7 4 -10 1 -7 -7 3 -8 13 -13 22 -13 11
1 16 -6 16 -28 0 -17 4 -27 10 -23 6 3 16 3 23 -2 6 -4 18 -8 26 -10 7 -1 18
-6 24 -12 8 -8 4 -11 -12 -11 -16 0 -21 -4 -17 -15 3 -8 1 -15 -4 -15 -6 0
-10 7 -10 15 0 8 -14 18 -32 23 -23 6 -34 15 -36 30 -2 12 -16 26 -33 34 -16
7 -29 15 -29 18 0 14 -59 9 -71 -6 -12 -14 -9 -20 20 -45 19 -15 45 -29 59
-31 18 -2 28 -11 33 -31 4 -15 18 -36 31 -47 l23 -19 -22 6 c-14 3 -23 1 -23
-6 0 -7 -4 -10 -9 -7 -21 13 -32 -134 -12 -158 6 -7 7 -17 3 -21 -4 -5 1 -5
12 -1 13 4 17 2 13 -8 -3 -8 1 -20 9 -26 8 -7 14 -21 14 -31 0 -10 9 -23 19
-29 11 -5 23 -20 26 -31 4 -12 39 -53 77 -90 67 -66 76 -88 23 -53 -30 20 -32
8 -4 -26 11 -14 18 -19 14 -12 -10 19 2 14 30 -14 21 -21 29 -23 40 -14 12 10
15 9 15 -3 0 -9 -4 -19 -10 -22 -5 -3 -10 -15 -10 -26 0 -26 -6 -24 -52 19
-44 41 -72 87 -63 102 3 6 2 10 -4 10 -5 0 -13 -5 -16 -10 -8 -14 -25 -3 -25
16 0 18 -39 53 -59 54 -8 0 -11 3 -8 7 4 3 0 14 -9 24 -8 9 -16 26 -17 38 -1
15 -8 21 -26 21 -15 0 -34 11 -47 27 -14 18 -26 24 -38 20 -10 -4 -14 -12 -10
-18 5 -8 9 -8 14 1 6 9 11 7 19 -8 6 -11 11 -23 11 -26 0 -11 -35 -5 -54 9
-29 22 -60 20 -51 -2 19 -44 12 -58 -30 -59 -22 -1 -46 -3 -54 -5 -10 -3 -17
6 -21 26 -4 23 -11 31 -30 33 -14 1 -42 7 -62 14 -65 19 -89 -22 -45 -78 l22
-29 -35 21 c-26 15 -35 27 -36 48 -1 16 -14 40 -33 59 -17 18 -31 38 -31 45 0
7 -5 12 -10 12 -7 0 -7 -6 0 -19 11 -22 10 -71 -2 -71 -4 0 -8 5 -8 10 0 6
-12 10 -27 10 -24 0 -26 -2 -13 -15 8 -8 26 -16 38 -18 24 -4 42 -22 42 -44 0
-21 -17 -15 -48 17 -20 19 -32 25 -35 17 -3 -9 -15 -6 -44 10 -54 30 -65 18
-47 -50 7 -28 12 -53 10 -55 -2 -2 -21 6 -42 17 -21 12 -42 17 -47 12 -14 -14
12 -169 38 -225 13 -28 22 -53 20 -55 -8 -7 -102 78 -126 114 -13 19 -27 35
-31 35 -10 0 53 -120 85 -161 15 -20 30 -51 33 -70 4 -19 16 -47 27 -63 15
-21 17 -31 9 -34 -8 -2 -5 -14 10 -35 13 -18 22 -33 20 -35 -4 -3 37 -114 48
-127 4 -5 11 -25 15 -42 10 -50 74 -93 89 -60 5 9 7 9 12 -1 14 -32 69 -83
108 -102 22 -11 63 -34 91 -50 27 -16 52 -27 55 -25 3 2 14 -3 25 -11 10 -8
15 -14 10 -14 -15 0 38 -51 70 -67 l30 -16 -20 23 -20 23 30 -16 c42 -22 74
-48 55 -45 -19 4 -26 -43 -10 -71 6 -11 32 -33 58 -48 51 -29 194 -123 202
-132 10 -12 52 -32 57 -27 3 2 -23 25 -57 50 -34 25 -56 46 -49 46 21 -1 99
-38 134 -64 36 -27 122 -53 135 -40 4 5 10 18 13 29 5 19 5 19 12 -2 4 -13 15
-23 24 -24 14 0 14 -1 1 -7 -8 -4 -16 -19 -18 -34 -3 -32 18 -46 80 -54 65 -8
115 -30 152 -68 29 -28 96 -64 96 -51 0 3 -24 20 -52 40 -61 40 -58 42 37 14
39 -11 88 -22 110 -25 39 -4 38 -3 -25 26 -77 37 -71 32 -75 66 -3 34 4 56 16
48 5 -3 9 -1 9 5 0 5 -4 13 -10 16 -17 10 -11 21 18 31 l27 10 -29 19 c-21 14
-32 16 -44 8 -13 -8 -20 -6 -29 6 -9 13 -14 13 -24 4 -10 -10 -21 -4 -56 27
-50 47 -124 86 -147 77 -29 -11 -17 -38 26 -57 23 -10 43 -26 44 -34 3 -20 8
-21 -73 13 -61 26 -68 32 -71 60 -2 17 -9 31 -15 31 -7 0 -4 5 6 11 23 14 22
36 -4 44 -19 6 -19 8 -5 24 15 16 14 19 -10 40 -25 22 -25 23 -8 42 10 11 19
30 19 41 0 12 6 23 14 26 8 3 11 0 7 -7 -12 -19 4 -49 29 -53 21 -5 26 0 35
30 6 23 6 40 0 47 -7 8 -4 18 10 30 26 24 25 60 -2 79 -19 14 -23 14 -30 2 -9
-15 -76 -41 -84 -33 -3 3 0 16 7 28 10 20 8 25 -17 46 -16 13 -37 26 -46 29
-12 4 -18 15 -18 37 l1 32 24 -27 c13 -16 29 -28 35 -28 5 0 10 -4 10 -8 0 -5
11 -15 25 -22 13 -7 23 -18 22 -23 -1 -6 7 -12 18 -14 16 -3 17 -2 5 6 -27 19
4 11 38 -9 40 -25 71 -74 65 -103 -5 -17 -3 -19 7 -10 7 6 27 9 46 6 32 -5 35
-3 50 33 14 34 14 39 1 49 -9 6 -23 30 -32 52 -17 43 -60 71 -90 59 -9 -3 -36
9 -65 29 -28 19 -54 35 -60 35 -5 0 -18 17 -27 37 -34 72 -126 82 -148 18 -9
-26 -13 -29 -32 -20 -25 11 -31 25 -10 25 7 0 23 13 35 29 l21 29 -22 7 c-22
7 -22 7 3 14 l25 8 -27 7 c-18 5 -25 13 -21 23 4 11 11 9 32 -11 31 -30 56
-35 47 -10 -4 9 -1 23 6 31 9 11 9 19 0 34 -9 14 -9 25 0 45 11 24 10 29 -17
50 -37 29 -45 30 -38 4 3 -11 0 -20 -6 -20 -6 0 -11 14 -11 30 0 22 -5 30 -17
31 -13 0 -12 3 6 10 19 7 26 5 43 -16 13 -16 29 -25 48 -25 39 0 44 13 24 55
-14 30 -15 41 -3 79 16 54 34 51 50 -8 7 -26 26 -54 53 -79 37 -35 41 -43 39
-83 -1 -24 0 -44 2 -44 2 0 13 17 25 37 l21 37 23 -28 c17 -22 29 -27 51 -25
21 3 29 0 27 -9 -1 -8 2 -11 7 -8 17 11 39 -5 50 -35 6 -19 17 -29 30 -29 14
0 19 -5 15 -15 -6 -13 11 -20 38 -16 4 0 5 -6 2 -14 -4 -8 1 -17 10 -21 9 -3
16 -10 16 -16 0 -5 6 -16 14 -24 8 -7 12 -23 9 -34 -4 -14 3 -27 21 -41 l26
-21 -20 -25 c-13 -17 -18 -34 -14 -52 5 -26 5 -26 -23 7 -37 43 -47 41 -22 -5
23 -42 58 -83 68 -80 3 1 19 -11 35 -26 16 -15 41 -30 55 -34 14 -3 37 -13 51
-23 51 -34 98 -15 86 34 -8 33 -77 97 -97 91 -20 -7 -45 20 -29 30 6 4 18 1
27 -7 12 -9 15 -9 9 0 -4 6 -3 12 3 12 5 0 11 -4 13 -9 2 -5 22 -18 46 -29 39
-19 42 -19 42 -2 0 13 6 16 25 12 21 -4 24 -1 18 14 -4 11 -8 13 -11 6 -2 -8
-11 -3 -23 12 -22 28 -24 43 -7 48 16 6 -8 67 -36 91 -14 12 -17 20 -9 23 7 3
10 11 7 19 -3 8 -1 22 4 31 9 16 12 15 34 -7 13 -13 33 -43 44 -66 21 -46 34
-55 34 -23 0 12 7 20 16 20 12 0 14 -7 9 -29 -5 -23 -2 -29 15 -34 18 -5 21
-2 17 14 -4 17 -3 18 9 8 17 -14 19 2 2 20 -9 10 -10 12 -1 7 9 -5 11 4 8 31
-2 21 -4 41 -4 46 -1 4 -22 17 -48 30 -51 23 -92 82 -73 101 20 20 9 51 -31
92 -36 36 -39 44 -30 63 16 29 -2 62 -32 60 -48 -4 -65 3 -110 46 -52 49 -77
57 -77 24 0 -11 -4 -17 -10 -14 -5 3 -10 17 -10 30 0 18 -7 26 -25 30 -14 3
-37 7 -51 10 -18 4 -25 2 -22 -7 3 -7 14 -14 26 -16 12 -2 22 -7 22 -10 0 -4
13 -22 29 -40 16 -17 31 -40 33 -49 2 -13 15 -20 43 -23 41 -5 47 -19 22 -49
-9 -11 -16 -7 -39 20 -15 18 -31 30 -35 26 -4 -4 -23 9 -43 28 -20 20 -47 37
-58 38 -12 1 -22 7 -22 13 0 17 -22 22 -46 10 -21 -11 -21 -34 0 -48 7 -5 6
-8 -3 -8 -21 0 -56 43 -58 71 -2 22 -1 22 11 7 16 -22 30 -24 23 -4 -4 10 -1
13 9 9 7 -3 14 0 14 5 0 6 -12 12 -27 14 -20 2 -28 9 -28 23 0 13 7 19 18 19
28 -3 14 19 -24 38 -33 15 -74 52 -53 47 19 -5 64 21 65 38 1 16 2 16 6 1 5
-19 53 -54 53 -39 0 6 -8 14 -17 20 -16 9 -16 12 -3 25 10 11 20 12 30 6 13
-9 13 -11 0 -20 -12 -7 -12 -12 -3 -21 9 -9 15 -9 26 0 12 9 16 8 21 -5 3 -9
2 -22 -4 -29 -8 -9 -5 -14 10 -18 11 -3 20 -1 20 5 0 5 4 7 9 3 5 -3 13 -1 16
5 4 7 30 -2 70 -25 35 -19 70 -35 79 -35 9 0 15 -5 13 -11 -1 -6 6 -13 16 -14
16 -3 22 7 17 30 -1 6 2 6 7 2 4 -5 8 -16 8 -25 0 -9 7 -17 15 -17 8 0 18 -8
23 -18 4 -11 15 -21 25 -24 21 -6 65 -60 65 -79 0 -8 8 -14 18 -14 9 0 39 -20
67 -45 34 -30 52 -41 56 -33 4 9 5 8 4 -2 -2 -19 13 -53 26 -62 6 -4 1 -8 -11
-8 -13 0 -23 4 -23 9 0 5 -19 15 -43 23 -39 13 -43 12 -42 -1 2 -28 26 -62 37
-55 7 5 6 11 -5 19 -10 7 -17 15 -17 18 0 9 31 2 38 -9 4 -5 29 -21 55 -34 35
-18 50 -22 55 -13 5 8 13 9 22 3 8 -5 25 -7 37 -4 12 3 30 1 40 -5 17 -10 17
-11 -2 -9 -72 5 -99 -13 -48 -33 14 -5 52 -26 83 -45 69 -42 110 -43 121 -4 7
24 7 24 9 -5 1 -16 2 -35 1 -42 -1 -7 8 -17 19 -23 12 -6 25 -21 29 -32 l8
-22 5 21 c4 14 -3 30 -19 47 -13 14 -20 26 -15 26 15 0 49 -55 54 -88 4 -29
-1 -37 -24 -33 -17 2 5 -27 28 -38 14 -6 22 -16 19 -21 -3 -6 1 -10 11 -10 12
0 15 -6 11 -22 -7 -26 25 -88 54 -106 19 -12 20 -11 16 29 -2 23 -11 47 -18
53 -19 15 -47 51 -33 43 7 -4 17 0 24 8 10 12 16 13 29 3 9 -7 6 -1 -7 14 -23
25 -23 25 -3 31 12 3 19 2 16 -3 -3 -4 1 -10 9 -13 8 -3 17 -20 21 -37 6 -27
9 -29 23 -18 13 11 15 10 9 -4 -3 -10 0 -24 9 -33 13 -13 13 -15 1 -15 -8 0
-20 7 -27 15 -7 8 -16 12 -21 9 -5 -3 -12 2 -15 10 -3 9 -10 13 -16 10 -5 -3
-5 -11 2 -19 17 -20 90 -56 101 -50 5 4 17 1 26 -5 16 -10 15 -11 -4 -7 -13 3
-23 1 -23 -4 0 -8 8 -11 30 -12 3 0 17 -14 32 -31 37 -44 25 -59 -31 -40 -24
8 -54 14 -65 12 -15 -2 -3 -11 42 -32 34 -16 62 -31 62 -34 0 -2 -34 -69 -75
-148 -50 -96 -75 -156 -75 -178 0 -24 13 -51 50 -101 36 -49 50 -77 50 -101 0
-31 -3 -34 -42 -44 -24 -6 -48 -13 -54 -15 -6 -2 -17 -24 -24 -50 -8 -27 -16
-41 -20 -35 -5 9 -9 9 -14 1 -4 -6 -25 -11 -47 -11 -43 0 -46 -5 -25 -36 8
-12 18 -45 22 -75 4 -30 10 -63 14 -74 7 -19 4 -20 -54 -17 -33 2 -67 9 -74
15 -10 8 -16 7 -22 -3 -10 -16 -106 4 -325 67 -359 103 -576 187 -842 324
-212 109 -265 140 -452 264 -230 154 -582 452 -784 664 -135 143 -334 398
-402 515 l-29 49 50 45 c98 90 461 312 508 312 11 0 16 -5 13 -14 -3 -7 7 -26
22 -40 24 -23 29 -25 35 -11 3 9 6 27 6 40 0 33 10 54 23 50 7 -2 25 -6 41
-10 30 -6 31 -1 12 46 -5 12 0 18 18 21 18 4 26 1 26 -8 0 -21 34 -17 55 6 14
15 15 20 4 20 -21 1 21 30 43 30 22 0 58 -55 58 -88 0 -12 7 -25 15 -28 8 -4
15 -10 15 -15 0 -4 -7 -6 -15 -3 -11 5 -15 -1 -15 -20 0 -14 3 -26 8 -26 11 0
34 58 27 70 -3 5 0 7 9 4 29 -11 5 33 -35 66 -21 17 -39 37 -39 45 0 21 225
103 288 104 12 1 22 -3 22 -8z m-540 -31 c-8 -6 -24 -9 -35 -9 -15 0 -13 4 10
14 32 14 49 10 25 -5z m-740 0 c0 -15 -153 -115 -158 -102 -6 20 -4 23 65 68
68 43 93 53 93 34z m280 -20 c0 -13 -75 -60 -96 -60 -26 0 -10 23 32 47 42 24
64 29 64 13z m3690 1 c0 -4 -21 -11 -46 -15 -73 -10 -94 -8 -94 9 0 12 14 15
70 15 39 0 70 -4 70 -9z m825 -11 c10 -11 15 -23 11 -27 -9 -9 -58 18 -64 35
-6 20 33 14 53 -8z m-4215 -50 c0 -5 -5 -10 -11 -10 -5 0 -7 5 -4 10 3 6 8 10
11 10 2 0 4 -4 4 -10z m4349 -57 c42 -31 78 -58 80 -60 3 -2 0 -8 -7 -15 -8
-8 -32 5 -91 48 -74 54 -98 84 -69 84 6 0 45 -25 87 -57z m-4851 16 c-6 -17
-193 -138 -202 -129 -13 13 -1 26 95 90 80 53 117 67 107 39z m797 11 c3 -5 2
-10 -4 -10 -5 0 -13 5 -16 10 -3 6 -2 10 4 10 5 0 13 -4 16 -10z m-261 -40
c-60 -49 -332 -212 -347 -207 -5 1 60 45 146 96 86 51 159 96 162 101 9 14
-116 -55 -222 -122 -95 -60 -113 -67 -113 -45 0 25 329 213 356 203 6 -2 17 0
25 5 8 5 20 9 28 9 7 0 -9 -18 -35 -40z m-840 -26 c-22 -19 -49 -37 -61 -40
-13 -3 -23 -12 -23 -20 0 -7 -13 -20 -28 -28 -16 -8 -34 -22 -41 -30 -14 -17
-51 -22 -51 -7 0 8 175 146 214 168 38 21 31 -8 -10 -43z m2591 36 c3 -5 1
-10 -4 -10 -6 0 -11 5 -11 10 0 6 2 10 4 10 3 0 8 -4 11 -10z m390 -58 c-3 -3
-11 0 -18 7 -9 10 -8 11 6 5 10 -3 15 -9 12 -12z m2397 -114 c46 -40 135 -123
198 -185 91 -89 112 -114 103 -124 -10 -10 -38 12 -135 107 -68 66 -158 150
-200 188 -43 38 -78 73 -78 78 0 23 38 1 112 -64z m-1544 50 c-3 -7 -11 -13
-18 -13 -7 0 -15 6 -17 13 -3 7 4 12 17 12 13 0 20 -5 18 -12z m-3482 -10 c4
-6 2 -14 -4 -16 -7 -2 -36 -21 -64 -43 -57 -42 -68 -46 -68 -26 0 13 105 96
122 97 4 0 10 -5 14 -12z m1580 -29 c23 -14 34 -28 34 -44 0 -13 7 -30 15 -38
7 -8 17 -26 20 -40 4 -15 13 -31 21 -38 8 -6 14 -21 14 -32 0 -11 8 -30 18
-41 16 -20 16 -20 0 -7 -10 7 -18 10 -18 6 0 -4 -12 4 -27 19 -16 16 -29 22
-33 16 -4 -6 -13 -5 -26 5 -12 9 -14 14 -6 15 7 0 10 5 6 11 -4 6 -8 32 -9 58
-3 61 -13 83 -35 76 -9 -3 -23 1 -30 10 -10 12 -10 15 3 15 10 0 14 6 11 15
-8 20 2 19 42 -6z m1148 0 c-8 -14 -24 -10 -24 6 0 9 6 12 15 9 8 -4 12 -10 9
-15z m-2694 -78 c0 -15 -136 -101 -159 -101 -31 0 -3 34 57 69 65 39 102 51
102 32z m40 -20 c0 -5 -7 -11 -15 -15 -8 -3 -40 -24 -70 -47 -31 -23 -58 -39
-61 -36 -3 3 19 24 49 46 31 22 58 45 62 51 8 12 35 13 35 1z m4852 -100 c27
-30 47 -60 44 -67 -3 -7 8 -23 25 -35 17 -12 28 -27 25 -35 -3 -7 -1 -16 4
-19 15 -9 43 -75 36 -82 -4 -4 -36 23 -73 60 -36 38 -83 77 -104 88 -22 11
-39 26 -39 34 0 24 11 17 90 -55 41 -38 77 -66 80 -63 3 2 -48 55 -113 116
-107 102 -129 132 -111 150 13 12 86 -38 136 -92z m-3252 79 c0 -5 -2 -10 -4
-10 -3 0 -8 5 -11 10 -3 6 -1 10 4 10 6 0 11 -4 11 -10z m44 -29 c3 -5 18 -12
33 -16 28 -7 52 -31 53 -53 0 -9 -12 -4 -31 12 -17 14 -36 26 -44 26 -7 0 -23
9 -36 20 l-24 19 22 1 c12 0 24 -4 27 -9z m21 -65 c24 -13 24 -14 6 -19 -14
-3 -25 3 -37 20 -9 14 -11 22 -5 19 6 -4 22 -13 36 -20z m-2045 -18 c-1 -13
-104 -88 -121 -88 -24 0 -4 30 44 63 54 38 77 46 77 25z m2039 -41 c14 4 14 3
1 -6 -12 -8 -11 -13 8 -34 13 -14 30 -24 39 -23 9 0 18 -5 20 -12 3 -8 -5 -11
-29 -8 -18 3 -40 5 -49 5 -9 1 -24 12 -33 26 -17 25 -17 26 10 19 l26 -7 -18
29 c-10 16 -12 24 -5 17 8 -6 21 -9 30 -6z m-1833 -54 c-18 -27 -36 -58 -40
-69 -4 -12 -15 -29 -26 -39 -25 -23 -25 -31 0 -80 l21 -40 -21 -17 c-11 -9
-20 -23 -20 -32 0 -27 -32 -100 -50 -116 -10 -8 -21 -29 -25 -47 -3 -17 -19
-45 -36 -62 -16 -17 -29 -36 -29 -42 0 -22 -33 -37 -72 -31 -28 3 -44 0 -58
-13 -13 -12 -27 -15 -49 -10 -21 4 -38 1 -53 -9 -12 -9 -37 -16 -55 -16 -34 0
-41 -8 -22 -27 18 -18 -7 -53 -38 -53 -14 0 -40 -9 -59 -20 -18 -12 -46 -22
-62 -25 -60 -7 -89 -35 -96 -92 -1 -16 -8 -38 -14 -50 -7 -12 -12 -24 -12 -27
0 -10 95 7 115 20 11 8 27 14 36 14 9 0 24 9 34 20 17 18 28 20 141 15 139 -5
144 -3 184 76 18 34 23 37 75 41 44 4 62 11 85 33 16 16 32 37 36 47 9 28 -22
67 -69 89 -23 10 -34 19 -24 19 46 0 102 -47 117 -100 8 -27 5 -38 -18 -73
-34 -54 -41 -58 -78 -51 -46 8 -103 -19 -117 -56 -6 -16 -19 -33 -29 -36 -10
-3 -29 -20 -43 -39 -34 -44 -70 -53 -95 -23 -17 22 -19 22 -37 5 -11 -9 -32
-17 -46 -17 -15 0 -52 -16 -83 -36 -43 -28 -62 -34 -83 -29 -70 17 -89 17
-108 -3 -44 -46 -69 -80 -66 -89 2 -6 -3 -16 -12 -23 -8 -7 -15 -18 -15 -24 0
-17 -49 -108 -72 -133 -11 -11 -18 -29 -16 -40 3 -10 -7 -40 -20 -68 -14 -27
-30 -70 -37 -95 -9 -37 -18 -48 -48 -63 -35 -16 -55 -53 -22 -41 20 8 20 -26
0 -52 -16 -22 -20 -54 -6 -54 6 0 3 -16 -5 -35 -18 -45 -65 -228 -70 -277 -2
-21 -8 -46 -13 -56 -5 -9 -17 -64 -26 -122 -9 -58 -23 -143 -31 -190 -44 -246
-18 -716 55 -1036 26 -110 106 -382 141 -474 64 -171 61 -162 38 -155 -15 6
-19 3 -16 -11 2 -10 16 -21 34 -26 36 -9 62 -44 124 -169 61 -120 145 -267
232 -401 l76 -118 28 22 c38 31 141 33 173 4 26 -24 29 -51 4 -41 -36 14 -130
18 -138 5 -13 -22 15 -35 78 -36 70 -1 148 -30 169 -63 8 -13 23 -21 40 -21
16 0 41 -12 61 -30 40 -35 52 -38 37 -11 -15 29 -13 31 27 31 46 0 39 8 -13
14 -21 2 -46 6 -54 9 -8 3 -24 7 -35 9 -12 2 -20 11 -20 23 0 14 -8 21 -25 23
-40 5 -90 23 -90 32 0 13 32 28 48 23 6 -3 12 -3 12 0 0 10 -35 73 -44 79 -16
11 -28 10 -21 -2 6 -9 -28 -16 -50 -10 -5 2 -31 4 -56 6 -26 1 -54 6 -63 11
-15 8 -15 11 5 29 16 15 38 19 98 21 115 3 141 -4 141 -35 0 -19 16 -42 58
-82 46 -43 58 -51 58 -35 -1 18 5 20 74 20 62 0 81 -4 107 -22 37 -27 44 -28
37 -8 -7 17 12 19 64 9 23 -5 33 -15 44 -43 14 -34 18 -37 83 -49 99 -19 121
-31 117 -66 -5 -42 -54 -116 -113 -169 -50 -46 -66 -57 -54 -38 3 5 0 13 -6
17 -8 5 -10 -4 -7 -28 2 -20 -2 -40 -9 -47 -11 -9 -10 -16 3 -36 9 -14 13 -33
9 -45 -5 -15 -2 -20 12 -19 10 0 14 2 8 5 -11 5 -12 63 -1 110 4 17 23 46 42
65 l35 34 -8 -30 c-16 -60 -6 -167 25 -262 33 -101 69 -155 138 -205 24 -17
42 -33 40 -35 -8 -9 -129 62 -147 86 -11 15 -28 37 -39 49 -11 13 -20 29 -20
35 0 5 -3 8 -6 5 -3 -4 2 -20 11 -37 8 -17 12 -31 7 -31 -18 0 -188 105 -273
168 -74 55 -86 67 -67 70 72 8 91 14 77 22 -8 6 -18 5 -23 0 -13 -13 -58 -13
-90 0 -14 5 -119 101 -233 212 -175 171 -195 189 -129 111 132 -156 385 -384
557 -500 38 -26 241 -139 407 -225 57 -30 141 -114 162 -163 10 -22 42 -92 72
-155 60 -125 108 -242 108 -260 0 -12 -18 -8 -77 16 -21 9 -33 21 -33 34 0 26
-15 34 -17 8 -3 -29 -6 -31 -50 -19 -57 16 -123 98 -123 155 l0 41 -30 -47
c-17 -27 -34 -48 -40 -48 -5 0 -21 18 -34 39 -22 34 -24 43 -13 70 8 23 8 39
0 63 -7 18 -10 44 -7 58 3 14 1 36 -4 49 -8 24 -9 24 -32 -14 -16 -26 -20 -40
-12 -43 17 -5 15 -52 -2 -52 -26 0 -30 -40 -7 -64 12 -12 21 -25 21 -28 0 -4
-22 -20 -49 -36 l-48 -30 9 44 c9 40 7 47 -16 75 -29 34 -34 80 -11 99 8 7 14
22 14 34 -1 17 -2 17 -6 4 -6 -24 -20 -23 -33 2 -6 11 -16 17 -22 14 -7 -5 -8
-2 -4 5 5 7 0 21 -10 32 -13 14 -15 22 -6 31 8 8 5 18 -10 38 -15 21 -19 39
-16 69 5 57 -8 52 -17 -6 -4 -26 -13 -56 -21 -67 -8 -11 -14 -28 -14 -37 0 -9
-9 -24 -20 -34 -26 -23 -26 -39 0 -32 21 5 21 5 0 -26 -12 -18 -33 -56 -46
-85 -14 -28 -29 -52 -34 -52 -14 0 -22 37 -15 73 7 36 -15 95 -41 110 -8 4
-14 23 -14 40 0 18 -9 50 -20 72 -11 22 -20 55 -21 75 0 19 -4 43 -8 53 -6 17
-8 18 -21 3 -10 -13 -10 -20 -2 -28 18 -18 15 -44 -12 -96 -17 -36 -21 -54
-15 -76 6 -21 4 -33 -5 -40 -24 -20 -46 -60 -46 -83 0 -34 -16 -28 -25 10 -5
22 -9 27 -12 14 -6 -24 -23 -11 -23 18 0 17 4 23 14 19 20 -8 32 67 14 95 -9
15 -9 24 -2 31 17 17 5 62 -16 57 -14 -4 -19 8 -28 70 -7 41 -20 87 -31 101
-30 44 -54 95 -62 132 l-7 35 -1 -31 c-1 -22 -9 -37 -26 -48 -19 -13 -25 -25
-25 -53 0 -26 -8 -45 -27 -65 -25 -26 -25 -29 -10 -46 22 -24 21 -50 -3 -90
-21 -34 -40 -35 -40 -1 0 10 -6 19 -12 20 -16 1 -257 257 -339 359 -80 100
-154 200 -155 211 -1 5 -2 14 -3 19 0 6 -7 10 -14 10 -16 0 -97 119 -97 144 0
10 -18 38 -40 63 -22 25 -37 49 -34 54 2 4 -4 17 -15 28 -31 31 -122 225 -128
273 -4 27 -14 50 -28 63 -39 34 -141 320 -199 556 -62 253 -93 476 -111 794
-7 116 9 527 25 655 12 94 42 251 47 246 2 -2 7 -57 11 -122 l7 -119 17 45
c14 39 17 41 17 18 1 -16 6 -28 11 -28 19 0 32 54 27 112 -4 45 -1 65 15 95
12 21 34 81 49 133 79 265 169 503 184 488 2 -2 -4 -31 -14 -63 -34 -111 -34
-125 -2 -67 17 30 45 70 64 91 28 31 35 50 45 112 6 41 11 90 10 109 -1 58 19
117 87 246 69 131 70 134 55 134 -16 0 -60 -77 -107 -183 -42 -97 -78 -155
-98 -157 -10 0 -39 -58 -82 -165 -55 -138 -52 -133 -105 -151 -27 -9 -62 -14
-77 -12 -28 4 -28 4 -15 -28 8 -20 11 -41 6 -54 -6 -16 -10 -9 -21 39 -16 73
-3 111 45 125 30 9 32 14 44 80 6 39 18 81 26 93 8 12 14 30 14 40 0 10 7 27
15 37 8 11 15 31 15 45 0 14 9 40 20 56 11 17 20 40 20 52 0 12 5 25 10 28 6
3 7 17 4 31 -8 31 19 64 52 64 22 0 23 3 18 43 -5 34 -2 46 16 65 22 23 45 29
55 12 21 -34 55 15 55 81 0 33 4 41 26 49 15 6 37 19 51 30 13 10 37 21 53 25
16 3 34 13 41 21 6 8 19 14 29 14 10 0 41 12 68 26 27 14 69 28 93 31 24 3 50
10 57 16 16 12 66 86 75 111 4 11 13 16 22 12 9 -3 31 8 53 28 20 18 45 36 54
39 39 14 77 -70 47 -100 -8 -8 2 -8 32 1 26 8 47 21 52 34 6 12 18 24 28 27
14 5 17 13 13 29 -3 12 -1 33 5 48 13 34 91 72 131 65 25 -5 31 -2 49 28 20
34 20 35 1 77 -12 27 -16 46 -10 52 6 6 10 17 10 25 0 8 14 29 30 45 17 17 49
50 71 74 56 59 79 56 35 -5z m3977 -15 c15 -20 17 -29 9 -40 -7 -7 -23 -26
-36 -43 l-25 -30 -1 33 c0 25 -6 35 -22 41 -23 9 -23 9 5 22 20 9 27 18 23 31
-7 28 22 19 47 -14z m-3238 12 c3 -5 -1 -10 -10 -10 -9 0 -13 5 -10 10 3 6 8
10 10 10 2 0 7 -4 10 -10z m508 -57 l17 -46 -20 18 c-11 10 -18 20 -15 23 2 3
-3 10 -12 17 -9 7 -13 17 -9 23 13 21 21 13 39 -35z m2960 22 c-3 -9 -8 -14
-10 -11 -3 3 -2 9 2 15 9 16 15 13 8 -4z m-5003 -35 c0 -6 -32 -43 -70 -82
-52 -53 -73 -69 -82 -60 -8 8 7 29 57 81 63 66 95 86 95 61z m1474 -22 c9 -34
8 -38 -13 -38 -19 0 -31 25 -24 48 7 20 30 14 37 -10z m373 -26 c-19 -4 -67
23 -67 37 0 5 19 -1 43 -13 30 -15 37 -22 24 -24z m3098 -32 c21 0 24 -22 8
-54 -8 -16 -13 -39 -10 -53 7 -35 -10 -38 -43 -6 -17 15 -36 29 -43 29 -6 1
-18 2 -24 3 -21 2 -15 21 6 21 28 0 36 18 17 39 -24 26 -20 33 14 26 27 -6 30
-4 31 17 l0 23 16 -22 c8 -13 21 -23 28 -23z m858 -37 c25 -29 50 -141 43
-200 -4 -31 -2 -54 4 -58 5 -3 10 -13 10 -21 0 -17 -31 -19 -48 -2 -9 9 -12 7
-12 -10 0 -25 -10 -28 -28 -10 -16 16 -15 53 3 88 8 16 19 58 24 92 8 55 7 66
-10 90 -31 44 -20 68 14 31z m-2453 -33 c0 -5 -4 -10 -10 -10 -5 0 -10 5 -10
10 0 6 5 10 10 10 6 0 10 -4 10 -10z m-3010 -17 c0 -13 -84 -93 -97 -93 -21 0
-15 12 29 57 38 39 68 55 68 36z m6193 -27 c26 -34 36 -66 19 -66 -9 0 -72 80
-72 92 0 19 27 5 53 -26z m-6705 4 c-7 -22 -84 -110 -95 -110 -21 0 -15 20 16
49 15 14 31 36 35 49 5 13 15 22 28 22 11 0 18 -4 16 -10z m3356 -15 c-3 -8
-17 -14 -29 -13 -18 2 -21 5 -13 15 15 18 49 17 42 -2z m-868 -10 c3 -8 -4
-31 -17 -51 -22 -36 -23 -36 -32 -16 -6 12 -14 22 -19 22 -4 0 -8 5 -8 10 0 6
16 10 35 10 37 0 43 8 23 28 -9 9 -9 12 0 12 7 0 15 -7 18 -15z m901 -10 c9
-24 -1 -27 -15 -5 -8 13 -8 20 -2 20 6 0 13 -7 17 -15z m1640 -47 c-3 -8 -6
-5 -6 6 -1 11 2 17 5 13 3 -3 4 -12 1 -19z m-3793 -119 c-3 -5 -10 -7 -15 -3
-5 3 -7 10 -3 15 3 5 10 7 15 3 5 -3 7 -10 3 -15z m-1264 5 c0 -12 -42 -64
-51 -64 -15 0 -10 32 8 52 15 17 43 25 43 12z m6115 -24 c24 -9 26 -14 21 -44
-4 -23 -2 -37 8 -45 8 -6 17 -28 21 -47 3 -20 9 -43 12 -52 3 -9 -15 3 -41 28
-44 41 -47 48 -43 82 3 21 1 41 -4 44 -9 5 -13 44 -5 44 3 0 17 -5 31 -10z
m-738 -35 c-11 -7 -26 -11 -35 -8 -13 6 -13 8 4 14 10 4 26 8 34 8 12 0 11 -3
-3 -14z m-617 -76 c19 -16 43 -29 53 -29 23 0 77 -52 77 -74 0 -9 27 -50 61
-91 78 -97 126 -177 146 -245 8 -30 38 -99 64 -154 52 -105 58 -140 37 -211
l-11 -40 -9 38 c-4 21 -15 45 -24 54 -8 9 -12 19 -7 22 19 14 12 56 -20 119
-19 37 -45 105 -57 150 -14 52 -37 104 -61 140 -73 108 -130 187 -151 207
l-20 20 18 -30 c11 -16 33 -51 51 -77 30 -46 50 -104 40 -115 -3 -3 -15 13
-26 36 -12 22 -27 40 -33 38 -7 -1 -33 37 -58 85 -25 47 -54 97 -65 109 -35
38 -97 79 -122 79 -25 0 -137 -53 -148 -70 -3 -5 -16 -15 -28 -20 -42 -20 66
65 122 96 l56 31 40 -20 c22 -11 56 -33 75 -48z m959 32 c9 -6 10 -11 2 -15
-13 -8 -31 1 -31 15 0 11 11 11 29 0z m-1615 -59 c-21 -5 -28 4 -20 24 6 16 8
15 21 -2 12 -16 12 -19 -1 -22z m141 19 c16 -19 16 -20 -4 -18 -13 1 -21 8
-21 19 0 23 3 23 25 -1z m-210 -1 c3 -5 -1 -10 -9 -10 -9 0 -16 5 -16 10 0 6
4 10 9 10 6 0 13 -4 16 -10z m-3180 -21 c11 -17 -1 -21 -15 -4 -8 9 -8 15 -2
15 6 0 14 -5 17 -11z m1725 -11 c0 -5 9 -23 21 -39 17 -25 18 -29 4 -29 -9 0
-22 15 -31 35 -16 40 -18 59 -4 50 6 -3 10 -11 10 -17z m41 -9 c-5 -13 -10
-19 -10 -12 -1 15 10 45 15 40 3 -2 0 -15 -5 -28z m4247 4 c36 -53 122 -213
122 -228 0 -8 -4 -15 -9 -15 -9 0 -151 245 -151 261 0 18 19 9 38 -18z m-2583
7 c3 -5 1 -10 -4 -10 -6 0 -11 5 -11 10 0 6 2 10 4 10 3 0 8 -4 11 -10z m1978
-89 c22 -17 21 -27 -2 -57 l-19 -24 -31 47 c-20 30 -28 50 -22 56 6 6 7 24 4
41 l-6 31 30 -40 c16 -22 37 -46 46 -54z m-1896 52 c-4 -24 -4 -25 7 -10 12
16 14 16 31 -3 18 -20 18 -21 -12 -52 -30 -29 -33 -30 -62 -18 -17 7 -31 16
-31 20 0 5 -3 15 -6 24 -3 9 -1 16 5 16 7 0 24 11 39 25 34 31 36 31 29 -2z
m82 -61 c-66 -70 -124 -167 -154 -262 -16 -50 -112 -221 -137 -245 -20 -19 -1
21 54 113 30 48 69 126 88 173 42 106 82 170 150 237 75 73 75 65 -1 -16z
m-374 -34 c1 -14 -1 -15 -12 -7 -7 6 -13 23 -13 38 1 25 1 25 12 6 7 -11 13
-28 13 -37z m-895 -11 c0 -5 -4 -5 -10 -2 -5 3 -10 14 -10 23 0 15 2 15 10 2
5 -8 10 -19 10 -23z m1162 -22 c-2 -10 -10 -28 -19 -41 -12 -20 -18 -21 -34
-11 -24 15 -24 33 -1 46 16 10 15 11 -3 12 -14 1 -11 4 10 9 40 10 51 7 47
-15z m1918 -103 c24 -48 59 -109 77 -136 22 -30 38 -67 42 -98 5 -28 15 -54
22 -59 8 -5 10 -9 6 -9 -9 0 51 -86 102 -145 25 -31 32 -35 28 -18 -4 20 -2
21 23 16 38 -7 70 25 70 71 0 43 -38 98 -75 109 -17 5 -50 18 -75 30 l-45 20
34 8 c18 4 45 18 58 32 31 31 25 59 -26 105 l-36 34 30 -4 c24 -2 38 -15 72
-68 23 -35 57 -94 74 -130 17 -36 46 -94 64 -130 18 -36 52 -110 76 -165 23
-55 57 -127 75 -160 18 -33 40 -80 49 -105 8 -24 22 -51 29 -60 15 -16 96
-266 96 -295 0 -10 13 -41 29 -69 27 -47 48 -135 75 -311 15 -95 28 -145 36
-140 5 3 4 19 -2 36 -5 16 -8 42 -5 56 8 40 -19 212 -36 231 -15 17 -37 104
-37 146 0 26 25 64 36 54 4 -4 13 -36 20 -70 15 -74 40 -165 53 -193 17 -38
41 -132 41 -159 0 -39 21 -116 31 -116 12 0 11 13 -7 101 -19 86 -14 129 16
129 27 0 29 -6 47 -132 24 -168 24 -695 -1 -873 -44 -321 -85 -509 -167 -757
-87 -264 -239 -597 -302 -659 -15 -16 -25 -33 -22 -39 16 -26 -339 -497 -405
-538 -21 -13 -21 -12 -5 19 16 29 14 59 -2 59 -12 0 -61 -81 -69 -115 -10 -42
-30 -79 -59 -111 -14 -15 -25 -32 -25 -39 0 -6 -11 -22 -25 -35 -14 -13 -24
-33 -23 -44 5 -33 -16 -31 -26 3 -8 28 -5 35 31 74 23 24 46 54 52 66 18 32
-11 28 -52 -9 -19 -16 -36 -30 -38 -30 -2 0 -5 14 -6 31 -3 40 -5 42 -37 29
-15 -5 -46 -10 -70 -10 -39 0 -44 3 -59 35 -17 36 -37 47 -37 21 0 -8 5 -18
10 -21 16 -10 12 -35 -5 -35 -9 0 -18 7 -21 15 -9 23 -33 19 -27 -5 5 -19 4
-19 -58 2 -35 11 -79 34 -97 50 -37 32 -55 34 -132 13 -68 -18 -70 -18 -70 -2
0 17 58 45 109 53 24 4 38 11 35 18 -2 6 14 18 38 26 32 11 48 25 63 52 11 20
16 40 13 44 -4 3 -31 -14 -60 -38 -29 -25 -89 -64 -132 -86 -75 -39 -81 -40
-108 -26 -15 8 -28 18 -28 23 0 4 24 20 53 36 87 47 188 114 266 178 79 65
311 296 311 310 0 4 14 20 31 34 40 34 208 289 264 401 32 62 58 100 95 132
45 40 58 63 121 205 130 295 200 528 235 784 8 64 20 145 24 181 15 105 11
404 -6 540 -8 69 -14 157 -13 195 1 39 -2 79 -6 90 -4 11 -14 35 -21 54 -8 18
-14 45 -14 60 0 14 -19 106 -42 203 -32 132 -47 178 -60 181 -9 3 -30 24 -47
48 -17 24 -42 55 -56 69 -13 14 -57 86 -96 160 -72 138 -104 181 -150 205 -25
13 -27 12 -42 -21 -9 -19 -21 -34 -27 -34 -19 0 -22 28 -4 55 16 25 16 26 -2
40 -28 22 -77 28 -128 17 -42 -9 -45 -8 -35 9 8 15 5 20 -16 25 -29 7 -31 20
-10 51 15 22 17 22 50 6 27 -13 38 -14 47 -5 9 9 2 22 -32 57 -44 44 -45 48
-51 123 -3 42 -9 84 -13 93 -5 11 2 19 26 31 18 8 38 14 44 11 6 -2 30 -43 54
-91z m-6591 11 c-1 -23 -51 -105 -67 -111 -20 -6 -14 17 19 74 31 55 50 69 48
37z m1558 -81 c-8 -9 -12 -23 -10 -30 7 -19 -39 -8 -51 12 -9 14 -5 22 17 42
26 22 30 23 44 9 14 -14 14 -18 0 -33z m-833 -40 c2 -4 -1 -18 -8 -30 l-12
-23 -19 21 c-16 18 -17 23 -5 30 18 12 37 13 44 2z m146 -19 c19 -24 21 -36
16 -82 -8 -63 -14 -77 -29 -62 -7 7 -6 24 3 56 12 42 11 48 -7 68 -31 34 -36
47 -19 47 8 0 24 -12 36 -27z m1925 7 c3 -5 1 -10 -4 -10 -6 0 -11 5 -11 10 0
6 2 10 4 10 3 0 8 -4 11 -10z m4375 -30 c24 -47 24 -50 5 -50 -16 0 -58 74
-48 84 13 13 23 5 43 -34z m389 -97 c36 -94 39 -104 26 -109 -9 -4 -85 157
-85 179 0 4 6 7 14 7 8 0 27 -33 45 -77z m-2357 -7 c16 -29 -7 -11 -33 27
l-23 32 23 -20 c13 -11 27 -28 33 -39z m1177 40 c8 -10 6 -19 -10 -40 l-20
-26 26 -10 c35 -13 23 -31 -16 -23 -22 4 -38 0 -59 -16 -16 -11 -32 -21 -35
-21 -3 0 -5 19 -5 43 0 52 21 84 63 96 44 13 43 13 56 -3z m-3473 -81 c30 -19
61 -35 69 -35 10 0 15 -10 15 -32 l0 -33 -31 33 c-16 17 -33 32 -37 32 -4 0
-25 16 -46 35 -50 45 -40 45 30 0z m-2286 4 c13 -8 12 -12 -7 -26 -13 -8 -23
-23 -23 -32 0 -22 -36 -61 -55 -61 -22 0 -19 12 17 74 33 57 42 63 68 45z
m-794 -31 c-37 -88 -47 -101 -59 -80 -9 14 42 112 58 112 13 0 14 -4 1 -32z
m2441 15 c2 -6 -3 -13 -12 -16 -10 -5 -15 0 -15 14 0 21 21 22 27 2z m3718 -3
c3 -5 -1 -10 -9 -10 -9 0 -16 5 -16 10 0 6 4 10 9 10 6 0 13 -4 16 -10z m311
-71 c3 -6 19 -9 33 -6 25 5 27 4 23 -22 -5 -38 9 -45 86 -43 58 2 63 0 56 -15
-16 -38 -6 -68 35 -104 40 -34 41 -36 23 -52 -18 -16 -20 -16 -37 3 -10 11
-25 22 -35 25 -9 3 -27 27 -39 54 -19 44 -26 50 -61 56 -28 5 -49 18 -79 51
-48 53 -75 56 -119 13 -38 -37 -39 -54 -11 -120 26 -59 20 -71 -15 -36 -20 20
-26 36 -26 71 0 62 14 93 52 116 36 22 103 27 114 9z m-6196 -76 c-11 -17 -11
-17 -6 0 3 10 6 24 7 30 0 9 2 9 5 0 3 -7 0 -20 -6 -30z m545 -20 c-5 -40 -2
-57 19 -98 28 -54 32 -85 16 -116 -17 -31 -42 -25 -34 9 4 15 8 29 10 30 5 7
-28 107 -42 130 -14 21 -13 26 6 57 12 19 24 35 27 35 3 0 2 -21 -2 -47z
m4295 37 c0 -5 -2 -10 -4 -10 -3 0 -8 5 -11 10 -3 6 -1 10 4 10 6 0 11 -4 11
-10z m60 6 c0 -3 -4 -8 -10 -11 -5 -3 -10 -1 -10 4 0 6 5 11 10 11 6 0 10 -2
10 -4z m481 -43 c13 -16 12 -17 -3 -4 -10 7 -18 15 -18 17 0 8 8 3 21 -13z
m-3146 -12 c56 -26 92 -62 120 -123 60 -129 3 -271 -126 -313 -118 -39 -251
12 -305 117 -22 43 -29 128 -14 173 16 50 84 123 135 146 52 24 138 24 190 0z
m4975 -76 c25 -64 30 -89 22 -97 -9 -9 -15 -2 -27 28 -9 21 -25 60 -37 86 -19
43 -19 86 0 74 5 -3 24 -44 42 -91z m-6764 -12 c10 -32 18 -92 19 -133 1 -41
7 -86 12 -100 8 -18 7 -32 -2 -50 -8 -14 -16 -38 -20 -53 -7 -33 -33 -58 -78
-73 -41 -14 -67 -58 -74 -126 -5 -49 -2 -57 35 -113 37 -55 40 -63 32 -103
-11 -61 -20 -63 -20 -5 0 45 -4 54 -32 78 -31 26 -31 27 -32 128 -1 119 13
164 53 173 60 15 107 100 99 179 -3 23 -1 50 4 58 6 11 4 24 -6 39 -18 29 -38
122 -30 143 11 28 23 15 40 -42z m4391 25 c-3 -8 -6 -5 -6 6 -1 11 2 17 5 13
3 -3 4 -12 1 -19z m2519 -19 c23 -48 26 -69 11 -69 -13 0 -47 65 -47 91 0 18
24 4 36 -22z m-7359 -21 c-3 -8 -6 -5 -6 6 -1 11 2 17 5 13 3 -3 4 -12 1 -19z
m5379 -14 c-10 -14 -20 -23 -23 -21 -6 6 30 57 36 51 2 -2 -4 -15 -13 -30z
m-889 -16 c-3 -8 -6 -5 -6 6 -1 11 2 17 5 13 3 -3 4 -12 1 -19z m-30 -14 c3
-9 -3 -24 -15 -37 -19 -19 -24 -19 -47 -7 -14 7 -25 19 -25 26 0 31 76 46 87
18z m1128 -29 c23 -22 35 -52 18 -43 -5 2 -32 15 -60 27 -56 25 -61 41 -12 41
18 0 39 -9 54 -25z m977 -43 c-2 -17 4 -56 12 -87 18 -69 11 -155 -12 -155
-12 0 -14 10 -9 56 4 36 0 82 -10 125 -16 71 -12 104 10 96 7 -2 11 -17 9 -35z
m-2188 6 c-4 -6 -2 -8 4 -4 6 3 13 2 16 -3 7 -10 -31 -47 -40 -38 -9 9 7 68
17 61 5 -3 6 -10 3 -16z m2852 -13 c14 -35 12 -55 -6 -55 -9 0 -30 54 -30 76
0 27 21 14 36 -21z m-4511 14 c10 -15 -1 -23 -20 -15 -9 3 -13 10 -10 16 8 13
22 13 30 -1z m3939 -39 c22 -22 15 -50 -13 -50 -21 0 -61 44 -61 67 0 20 48 9
74 -17z m-2330 -5 c6 -16 -20 -20 -61 -9 -36 10 -27 24 16 24 25 0 41 -5 45
-15z m1326 5 c-12 -7 -12 -12 -2 -22 9 -9 15 -9 24 0 7 7 18 12 25 12 16 0 17
-46 1 -56 -7 -4 -8 -3 -4 4 5 8 -3 12 -23 12 -16 0 -37 3 -47 7 -17 6 -17 7 0
13 17 6 17 7 2 23 -16 16 -16 17 11 17 21 0 24 -3 13 -10z m1788 -17 c21 -40
122 -435 122 -475 0 -4 -6 -8 -14 -8 -10 0 -19 20 -26 58 -17 85 -66 279 -89
352 -12 36 -21 71 -21 78 0 18 18 15 28 -5z m-3078 -44 c0 -5 -9 -9 -20 -9
-11 0 -20 5 -20 11 0 8 -4 8 -14 0 -14 -12 -46 -5 -46 9 0 5 17 10 38 12 37 3
62 -6 62 -23z m-4130 -5 c0 -10 6 -14 14 -11 15 6 46 -32 46 -55 0 -9 -3 -9
-10 2 -8 12 -10 11 -10 -7 0 -13 9 -27 22 -34 14 -8 18 -14 10 -17 -6 -2 -10
-8 -6 -13 3 -5 0 -9 -6 -9 -6 0 -15 10 -20 23 -5 12 -9 16 -9 9 -1 -7 3 -21 9
-31 6 -13 5 -24 -4 -36 -13 -18 -14 -18 -20 2 -4 12 -14 24 -22 27 -12 5 -13
10 -3 27 8 15 8 19 0 15 -6 -4 -11 0 -11 9 0 9 -5 13 -10 10 -6 -4 -9 -2 -8 3
2 5 -8 19 -22 31 -14 13 -20 20 -14 17 5 -2 21 8 34 25 28 33 40 37 40 13z
m4105 -24 c4 -7 -6 -10 -29 -8 -19 1 -32 6 -30 10 7 12 52 10 59 -2z m-31 -69
c-9 -10 -36 28 -29 39 6 9 12 6 21 -11 7 -13 10 -26 8 -28z m3046 -30 c21 -73
21 -101 1 -101 -7 0 -52 151 -51 173 0 4 6 7 14 7 8 0 22 -30 36 -79z m-3850
38 c0 -5 -7 -9 -15 -9 -15 0 -20 12 -9 23 8 8 24 -1 24 -14z m-466 -8 c3 -5 0
-11 -8 -14 -15 -6 -26 1 -26 15 0 11 27 10 34 -1z m2795 -35 c17 -20 -4 -30
-23 -10 -9 8 -19 13 -24 10 -4 -2 -14 -1 -22 5 -11 6 -5 9 21 9 20 0 42 -6 48
-14z m-1488 -60 c72 -25 135 -48 140 -53 13 -13 -140 3 -186 20 -24 8 -63 13
-95 11 -45 -3 -50 -2 -26 6 16 5 34 6 39 3 6 -4 3 4 -6 18 -36 50 -31 50 134
-5z m2359 19 c36 -19 63 -52 57 -70 -7 -16 -37 -21 -37 -6 0 21 -53 71 -75 71
-33 0 -56 10 -49 22 7 12 67 2 104 -17z m-2513 -21 c-3 -3 -12 -4 -19 -1 -8 3
-5 6 6 6 11 1 17 -2 13 -5z m-48 -28 c-2 -2 -67 -29 -144 -59 -77 -31 -166
-68 -198 -82 -32 -15 -61 -25 -63 -22 -8 8 250 123 341 152 40 13 72 18 64 11z
m-4469 -28 c-1 -28 -25 -132 -35 -147 -3 -6 -10 -9 -15 -6 -7 4 12 129 25 163
8 20 25 13 25 -10z m6244 -94 l49 -54 -72 25 c-39 13 -96 25 -126 26 -30 1
-55 4 -55 6 0 8 77 34 107 36 18 1 33 5 33 10 0 16 17 3 64 -49z m-5474 -36
c0 -50 -9 -88 -20 -88 -10 0 -23 106 -15 120 3 5 13 10 21 10 10 0 14 -12 14
-42z m6298 21 c-2 -6 -8 -10 -13 -10 -5 0 -11 4 -13 10 -2 6 4 11 13 11 9 0
15 -5 13 -11z m-3048 -74 c-19 -23 -98 -64 -157 -81 -29 -8 -53 -20 -53 -25 0
-6 5 -7 10 -4 6 3 10 -1 10 -9 0 -17 -29 -36 -55 -36 -16 0 -16 2 0 27 l18 27
-49 -29 c-27 -16 -58 -33 -69 -38 -11 -6 -27 -14 -35 -18 -81 -43 -404 -201
-426 -209 l-29 -10 25 21 c14 11 59 42 100 68 42 26 97 73 124 105 60 71 110
97 206 107 51 5 123 25 225 62 170 62 172 62 155 42z m2333 -37 c50 -39 57
-47 50 -64 -4 -10 -17 -3 -47 22 -22 19 -53 38 -68 41 -17 3 -25 10 -21 19 3
8 0 14 -6 14 -6 0 -11 4 -11 9 0 17 59 -7 103 -41z m-4288 -5 c54 -46 56 -50
52 -86 -6 -46 -19 -63 -70 -89 -22 -11 -55 -36 -73 -56 -19 -21 -34 -31 -34
-24 0 7 12 24 26 37 17 16 26 36 27 57 2 30 -1 33 -31 36 -34 3 -66 -13 -56
-29 9 -15 -20 -10 -44 7 -26 18 -29 42 -6 51 13 5 13 8 -4 27 -23 25 -45 66
-39 72 2 2 12 -5 22 -16 26 -28 37 -25 78 20 49 55 78 54 152 -7z m-598 -32
c45 -33 67 -77 61 -121 -3 -20 0 -30 8 -30 7 0 25 -5 41 -11 22 -8 24 -12 13
-20 -12 -7 -9 -8 9 -7 28 3 40 -19 16 -28 -28 -11 -125 55 -125 84 0 47 -111
119 -171 110 -20 -3 -29 0 -29 9 0 8 6 15 13 17 6 2 26 8 42 14 51 17 80 13
122 -17z m4753 14 c17 -9 30 -19 30 -24 0 -5 10 -12 23 -16 14 -4 17 -8 9 -12
-7 -3 -23 4 -35 15 -12 11 -35 28 -52 36 -16 9 -24 16 -17 16 7 0 26 -7 42
-15z m125 -83 c-6 -7 -45 9 -45 18 0 4 11 3 24 -3 14 -7 23 -13 21 -15z
m-4992 -5 c-2 -4 1 -14 7 -22 20 -24 6 -17 -18 8 -20 21 -20 23 -2 23 10 0 16
-4 13 -9z m5093 -59 c50 -46 56 -62 18 -48 -14 6 -42 9 -62 9 -34 -1 -32 -2
13 -9 28 -4 62 -12 76 -18 44 -17 85 -75 104 -145 17 -62 17 -69 0 -144 -32
-145 -76 -288 -102 -328 -29 -43 -43 -34 -20 12 12 23 36 95 72 211 8 24 -5
11 -25 -25 -18 -35 -19 -36 -13 -8 4 17 7 42 7 57 -1 17 3 25 11 22 7 -3 20
11 29 30 9 20 22 36 28 36 14 0 6 126 -9 141 -14 14 -146 45 -228 55 -50 6
-56 8 -35 16 14 5 57 7 95 3 104 -9 128 18 42 49 -23 8 -64 18 -90 21 -44 6
-47 8 -30 20 17 13 16 14 -7 8 -14 -3 -22 -2 -18 2 4 4 37 7 73 6 36 -1 65 3
65 8 0 5 -20 22 -44 37 -25 16 -42 32 -40 36 7 12 41 -8 90 -54z m-5022 33
c10 -11 15 -25 10 -32 -4 -8 -3 -10 4 -5 7 4 12 1 12 -8 0 -9 -5 -16 -11 -16
-5 0 -7 -4 -4 -10 9 -14 21 -12 38 4 12 13 18 10 46 -18 l32 -33 -27 -6 c-33
-6 -104 34 -104 59 0 8 -4 13 -9 10 -5 -4 -7 3 -4 13 3 10 0 28 -6 40 -15 26
0 27 23 2z m-604 -11 c0 -5 -2 -10 -4 -10 -3 0 -8 5 -11 10 -3 6 -1 10 4 10 6
0 11 -4 11 -10z m-3 -34 c-6 -15 48 -41 64 -31 15 10 75 -22 92 -49 13 -19 26
-26 50 -26 22 0 41 -8 55 -22 11 -13 41 -34 67 -48 38 -21 48 -23 65 -12 50
31 179 -53 141 -91 -5 -5 -14 0 -21 13 -6 12 -26 28 -43 35 -28 12 -34 11 -56
-6 -35 -28 -85 -25 -99 6 -6 14 -26 31 -44 38 -30 13 -34 12 -44 -6 -8 -14
-13 -16 -19 -8 -4 7 -4 15 -1 18 8 8 -13 43 -26 43 -7 0 -7 -4 1 -14 9 -11 9
-15 -1 -19 -9 -3 -6 -12 11 -31 19 -20 21 -26 9 -26 -9 0 -18 -6 -21 -12 -3
-9 -11 -7 -28 8 -13 12 -44 32 -69 44 -43 22 -44 23 -21 32 16 5 28 5 35 -2 5
-5 18 -10 28 -10 15 0 16 4 8 26 -6 14 -8 29 -5 34 9 14 -118 65 -137 54 -7
-4 -10 -3 -5 1 10 12 -22 45 -39 38 -29 -11 -13 8 19 21 41 18 40 18 34 2z
m1146 7 c-7 -2 -19 -2 -25 0 -7 3 -2 5 12 5 14 0 19 -2 13 -5z m-63 -52 c0 -6
-4 -13 -10 -16 -5 -3 -10 1 -10 9 0 9 5 16 10 16 6 0 10 -4 10 -9z m3617 -43
c-3 -8 -6 -5 -6 6 -1 11 2 17 5 13 3 -3 4 -12 1 -19z m-3925 -20 c-17 -8 -26
-8 -34 0 -9 9 -4 12 23 11 32 0 33 -1 11 -11z m-1278 -59 c2 -19 1 -24 -1 -11
-2 13 -11 26 -18 28 -8 3 -11 12 -8 20 8 23 23 2 27 -37z m5193 19 c-3 -7 -5
-2 -5 12 0 14 2 19 5 13 2 -7 2 -19 0 -25z m-98 -39 c4 6 7 -4 7 -23 0 -24 -4
-32 -13 -29 -7 3 -13 19 -12 37 0 17 3 25 6 17 4 -9 8 -10 12 -2z m-4644 -19
c-3 -5 -10 -10 -16 -10 -5 0 -9 5 -9 10 0 6 7 10 16 10 8 0 12 -4 9 -10z
m3364 6 c-2 -2 -28 -13 -58 -25 -30 -11 -50 -16 -45 -11 5 5 27 16 49 24 40
15 62 19 54 12z m326 -143 c-4 -23 -15 -38 -36 -48 -16 -9 -34 -27 -39 -39 -5
-13 -22 -31 -39 -39 -34 -17 -43 -4 -10 13 23 13 87 81 107 114 7 11 12 46 11
76 -2 77 4 87 8 15 3 -33 1 -75 -2 -92z m-3557 126 c18 -6 29 -15 26 -20 -3
-6 -11 -6 -19 1 -8 6 -26 15 -42 20 -15 4 -21 9 -12 9 9 1 30 -4 47 -10z
m2876 -21 c5 -15 7 -31 3 -34 -4 -4 -50 -12 -102 -18 -69 -7 -95 -14 -95 -24
0 -8 -9 -12 -22 -10 -15 2 -23 10 -23 23 0 16 16 25 75 46 41 15 86 31 100 37
36 16 53 10 64 -20z m-3430 -14 c3 -8 2 -12 -4 -9 -6 3 -10 10 -10 16 0 14 7
11 14 -7z m2813 1 c-10 -7 -51 -19 -90 -25 -40 -7 -112 -25 -162 -42 -106 -34
-306 -81 -457 -105 -59 -9 -106 -19 -103 -21 2 -2 19 -8 37 -12 l33 -8 -37 -1
c-21 -1 -86 6 -145 15 -59 9 -157 17 -217 17 l-111 2 -115 -49 c-239 -101
-264 -117 -445 -289 -22 -21 -56 -46 -75 -56 -33 -17 -110 -35 -110 -26 0 3
34 27 75 55 41 28 108 79 148 114 39 34 93 77 120 95 79 54 289 163 342 177
62 17 167 18 356 2 135 -11 156 -10 300 11 142 21 224 43 389 106 25 9 83 21
130 26 47 5 99 13 115 18 41 13 43 12 22 -4z m3250 -37 c-3 -8 -6 -5 -6 6 -1
11 2 17 5 13 3 -3 4 -12 1 -19z m-166 -80 c12 -22 2 -47 -19 -44 -10 2 -18 13
-19 27 l-2 24 8 -25 c9 -24 9 -24 10 8 1 21 -4 32 -13 32 -7 0 -16 10 -19 21
-6 21 -5 20 20 -2 13 -13 29 -32 34 -41z m-1081 38 c0 -2 -8 -10 -17 -17 -16
-13 -17 -12 -4 4 13 16 21 21 21 13z m578 -39 c-6 -20 -15 -37 -19 -37 -4 0 0
18 8 40 20 49 26 47 11 -3z m685 -57 c6 -20 4 -19 -8 5 -8 17 -14 44 -13 60 0
29 0 29 7 -5 4 -19 11 -46 14 -60z m-1430 13 c-7 -2 -19 -2 -25 0 -7 3 -2 5
12 5 14 0 19 -2 13 -5z m112 -18 c-79 -23 -95 -29 -95 -36 0 -11 -59 -39 -65
-30 -7 12 114 71 144 70 14 0 22 -2 16 -4z m39 -49 c61 -25 88 -97 47 -123
-18 -11 -19 -10 -10 19 12 42 -7 78 -51 100 -42 21 -32 23 14 4z m378 0 c3 2
22 -3 42 -12 l36 -17 -30 -18 c-33 -21 -45 -54 -37 -102 5 -28 4 -27 -14 12
-23 52 -16 89 22 108 23 12 23 13 2 13 -29 0 -53 10 -53 22 0 7 5 6 13 -1 8
-6 16 -8 19 -5z m736 -13 c15 -33 15 -46 2 -38 -6 4 -8 11 -5 16 4 5 2 9 -3 9
-5 0 -12 9 -15 20 -7 29 6 24 21 -7z m-884 -18 c-4 -8 -11 -15 -16 -15 -6 0
-5 6 2 15 7 8 14 15 16 15 2 0 1 -7 -2 -15z m810 -10 c14 -13 26 -29 26 -35 0
-14 -1 -14 -39 25 -38 40 -28 48 13 10z m66 -39 c0 -12 -5 -7 -19 24 -11 24
-11 24 3 6 9 -11 16 -24 16 -30z m-1913 7 c-7 -6 -46 10 -41 18 3 5 14 3 24
-3 11 -7 18 -13 17 -15z m1813 17 c0 -5 -11 -9 -24 -8 -14 1 -22 6 -20 10 7
12 44 10 44 -2z m162 -26 c-8 -14 -9 -13 -9 10 0 18 3 24 9 18 7 -7 7 -16 0
-28z m-3372 8 c0 -11 -30 -37 -52 -45 -9 -3 -22 0 -28 8 -8 10 -6 17 12 29 24
17 68 22 68 8z m693 -13 c-34 -22 -44 -35 -18 -25 8 3 15 3 15 1 0 -10 -101
-48 -175 -66 -90 -22 -179 -45 -340 -89 -105 -28 -225 -45 -225 -31 0 13 99
53 111 45 41 -25 226 17 348 80 78 39 227 90 258 88 12 -1 25 3 28 8 3 6 12
10 18 10 7 0 -3 -10 -20 -21z m1987 11 c0 -5 -5 -10 -11 -10 -5 0 -7 5 -4 10
3 6 8 10 11 10 2 0 4 -4 4 -10z m1556 -15 c4 -10 20 -15 50 -15 24 0 44 -4 44
-8 0 -5 16 -7 35 -6 19 2 35 1 35 -1 0 -2 -11 -29 -24 -59 -15 -33 -35 -60
-53 -71 -17 -10 -41 -35 -54 -56 -26 -42 -33 -45 -76 -28 -15 6 -48 7 -74 4
-37 -5 -49 -12 -58 -32 l-12 -25 48 7 c64 10 171 7 213 -5 45 -13 45 -13 30 5
-7 8 -18 15 -24 15 -6 0 -17 4 -25 9 -22 14 5 68 43 88 17 8 43 27 59 41 27
25 27 25 27 4 0 -13 6 -22 16 -22 11 0 13 6 9 19 -4 14 1 23 17 32 13 7 29 19
36 28 20 24 5 -5 -30 -56 -17 -26 -34 -40 -42 -37 -8 3 -17 0 -22 -7 -4 -8 -3
-10 4 -5 10 6 16 -10 14 -35 -1 -3 -3 -24 -6 -47 -3 -23 -1 -42 5 -42 5 0 9 7
9 15 0 23 17 18 24 -7 7 -22 7 -22 16 -3 7 13 8 0 4 -40 -4 -33 -8 -63 -10
-67 -3 -4 -21 0 -41 8 -20 9 -46 13 -59 10 -17 -5 -24 -2 -24 8 0 18 -70 46
-114 46 -53 0 -111 -58 -91 -91 5 -7 19 0 39 19 17 17 45 34 61 37 28 7 27 5
-12 -21 -23 -15 -47 -37 -53 -49 -9 -16 -18 -20 -42 -17 -16 3 -39 0 -51 -6
-12 -6 -31 -12 -42 -14 -11 -2 -28 -18 -37 -37 -9 -19 -25 -42 -35 -50 -16
-15 -16 -15 0 5 9 11 17 34 17 51 0 25 -6 33 -28 41 -28 10 -72 0 -72 -17 0
-5 9 -11 21 -14 28 -7 20 -27 -21 -55 -44 -29 -136 -29 -134 1 1 10 -3 16 -10
14 -6 -3 -10 -9 -9 -14 1 -6 -8 -8 -20 -6 -16 3 -28 -5 -46 -31 -13 -20 -43
-45 -70 -57 -25 -13 -56 -30 -69 -40 -13 -10 -29 -16 -37 -13 -7 3 -16 0 -21
-7 -5 -9 -2 -10 9 -6 21 8 21 7 2 -29 -20 -39 -27 -36 -32 13 -3 34 0 46 18
60 12 10 31 28 42 40 10 12 33 27 49 34 40 17 59 57 52 112 l-6 44 88 48 c67
36 103 49 144 53 30 2 61 9 68 15 8 6 34 10 58 8 50 -3 87 6 79 20 -4 5 -19 9
-35 9 -42 0 -44 24 -6 65 44 46 36 44 -27 -5 -51 -41 -66 -45 -51 -13 4 10 8
25 9 34 3 23 80 151 104 173 43 39 196 62 207 31z m-977 -28 c12 -15 12 -17
-3 -11 -9 3 -16 13 -16 22 0 8 1 13 3 11 1 -2 9 -12 16 -22z m47 -21 c-3 -11
-5 -23 -6 -26 -3 -9 -19 35 -19 54 -1 15 2 16 14 6 8 -7 13 -22 11 -34z m190
-64 c-3 -43 -10 -89 -16 -103 -10 -22 -10 -21 -5 10 3 18 5 64 5 102 0 42 4
69 11 69 7 0 9 -26 5 -78z m-5699 55 c6 0 9 -6 6 -13 -7 -18 -91 -30 -106 -15
-9 9 -7 11 8 5 16 -6 18 -5 8 7 -22 23 -14 29 30 22 23 -3 47 -6 54 -6z m3798
3 c3 -6 -1 -7 -9 -4 -18 7 -21 14 -7 14 6 0 13 -4 16 -10z m509 -19 c-2 -3
-12 3 -22 13 -16 17 -16 18 5 5 12 -7 20 -15 17 -18z m-809 -21 c-14 -22 -25
-43 -25 -47 -1 -17 -67 -81 -105 -102 l-40 -22 46 43 c25 24 67 71 94 106 55
71 66 80 30 22z m1962 -17 c21 -51 11 -49 -14 3 -12 25 -17 42 -12 38 6 -3 18
-22 26 -41z m32 13 c-3 -3 -11 5 -18 17 -13 21 -12 21 5 5 10 -10 16 -20 13
-22z m-100 -12 c3 -16 1 -17 -13 -5 -19 16 -21 34 -3 29 6 -3 14 -13 16 -24z
m-1518 -1 c13 -16 12 -17 -3 -4 -10 7 -18 15 -18 17 0 8 8 3 21 -13z m384 -6
c19 -4 19 -5 -1 -6 -12 0 -28 7 -35 17 -12 15 -12 16 1 6 8 -7 24 -14 35 -17z
m685 -14 c0 -41 -14 -36 -25 10 -6 21 -4 27 9 27 12 0 16 -10 16 -37z m-1238
-9 c-1 -16 -8 -55 -14 -86 -11 -54 -14 -58 -40 -58 -20 0 -28 5 -27 18 0 11 2
12 6 4 8 -20 33 6 33 35 0 13 7 26 15 29 10 4 15 19 15 43 0 27 -3 32 -10 21
-8 -13 -10 -13 -10 1 0 19 10 31 24 26 6 -2 10 -17 8 -33z m-2535 4 c-3 -8 -6
-5 -6 6 -1 11 2 17 5 13 3 -3 4 -12 1 -19z m-876 -34 c6 -8 3 -13 -9 -16 -15
-4 -17 0 -13 31 3 24 6 29 9 16 2 -11 8 -25 13 -31z m5149 -10 c0 -12 -3 -30
-6 -39 -11 -27 -24 3 -24 55 1 42 2 44 15 26 8 -11 15 -30 15 -42z m-4314 21
c-23 -17 -36 -19 -36 -6 0 11 18 19 40 20 11 0 10 -3 -4 -14z m2531 -27 c-3
-7 -5 -2 -5 12 0 14 2 19 5 13 2 -7 2 -19 0 -25z m1733 28 c0 -2 -7 -6 -15
-10 -8 -3 -15 -1 -15 4 0 6 7 10 15 10 8 0 15 -2 15 -4z m10 -62 c0 -8 -4 -14
-10 -14 -5 0 -10 9 -10 21 0 11 5 17 10 14 6 -3 10 -13 10 -21z m-1841 -10
c-15 -18 -78 -48 -86 -41 -2 3 12 10 32 17 20 7 41 20 48 30 6 11 13 17 16 15
2 -3 -2 -12 -10 -21z m-1442 10 c-3 -3 -12 -4 -19 -1 -8 3 -5 6 6 6 11 1 17
-2 13 -5z m-73 -13 c7 -11 -88 -41 -128 -40 -21 1 -13 5 28 13 33 6 61 17 64
24 4 14 28 16 36 3z m3249 -18 c-7 -2 -19 -2 -25 0 -7 3 -2 5 12 5 14 0 19 -2
13 -5z m-1902 -22 c-13 -24 5 -81 25 -81 8 0 14 -4 14 -10 0 -15 -26 -12 -39
3 -18 23 -25 75 -11 92 17 21 23 19 11 -4z m619 15 c0 -2 -8 -10 -17 -17 -16
-13 -17 -12 -4 4 13 16 21 21 21 13z m-2171 -15 c12 -8 1 -10 -129 -27 -96
-12 -285 -57 -335 -79 -54 -24 -58 -25 -41 -6 31 34 126 59 370 97 49 8 92 16
94 19 8 7 25 6 41 -4z m2111 -11 c0 -11 -4 -20 -10 -20 -5 0 -10 9 -10 20 0
11 5 20 10 20 6 0 10 -9 10 -20z m-3260 -10 c0 -5 -4 -10 -10 -10 -5 0 -10 5
-10 10 0 6 5 10 10 10 6 0 10 -4 10 -10z m-230 -24 c0 -7 -163 -106 -174 -106
-17 0 18 30 85 71 57 35 89 47 89 35z m3110 1 c0 -1 -21 -20 -47 -41 l-48 -38
44 41 c40 38 51 46 51 38z m144 -69 c8 -6 7 -11 -4 -18 -22 -14 -33 4 -24 42
7 30 8 31 12 8 2 -14 9 -28 16 -32z m1147 14 c6 -16 6 -29 0 -35 -9 -9 -11 -4
-28 57 -8 28 16 9 28 -22z m-1637 -3 c-45 -48 -168 -130 -279 -186 -53 -27
-105 -63 -250 -168 -49 -37 -102 -75 -117 -86 -46 -33 -32 -7 30 57 59 62 212
173 212 154 0 -6 5 -8 10 -5 6 4 7 11 4 17 -5 7 2 9 20 4 14 -3 26 -3 25 1 -5
32 6 45 58 68 70 31 291 154 299 166 3 5 8 9 11 9 4 0 -6 -14 -23 -31z m2217
-35 c12 -25 18 -48 16 -51 -3 -2 -11 12 -18 31 -7 20 -17 36 -21 36 -4 0 -8 7
-8 15 0 27 11 16 31 -31z m1056 40 c-3 -3 -12 -4 -19 -1 -8 3 -5 6 6 6 11 1
17 -2 13 -5z m-6143 -65 c-10 -11 -28 -25 -39 -30 -11 -6 -4 4 15 21 40 35 52
39 24 9z m3337 -16 c-8 -15 -10 -15 -11 -2 0 17 10 32 18 25 2 -3 -1 -13 -7
-23z m1190 13 c-1 -4 5 -19 14 -36 24 -46 18 -49 -9 -5 -13 22 -22 43 -19 48
5 9 15 3 14 -7z m-4195 -34 c61 -31 130 -97 169 -163 56 -91 37 -90 -24 2 -92
137 -198 187 -326 155 -78 -20 -85 -20 -59 -2 56 40 171 43 240 8z m4748 -8
c3 -8 2 -12 -4 -9 -6 3 -10 10 -10 16 0 14 7 11 14 -7z m-5185 -37 c-25 -23
-65 -55 -88 -72 -41 -29 -68 -62 -58 -71 2 -3 21 -5 41 -6 38 -1 53 -28 15
-28 -12 0 -17 4 -13 11 4 7 -4 10 -22 7 -43 -5 -44 30 -2 78 27 31 151 121
168 123 3 0 -16 -18 -41 -42z m3446 7 c-19 -15 -26 -28 -22 -39 4 -9 12 -13
19 -9 10 5 10 4 0 -7 -11 -12 -14 -12 -22 1 -6 10 -8 2 -5 -25 4 -30 3 -35 -4
-20 -6 12 -10 15 -10 6 -1 -8 -3 -12 -6 -9 -3 2 2 34 11 70 15 61 17 65 42 60
l26 -5 -29 -23z m-1104 -3 c-13 -24 -41 -35 -55 -21 -13 14 18 40 46 40 15 0
17 -4 9 -19z m2227 -47 c-3 -14 -5 -12 -10 9 -3 19 -2 25 4 19 6 -6 8 -18 6
-28z m-671 -6 c-3 -8 -6 -5 -6 6 -1 11 2 17 5 13 3 -3 4 -12 1 -19z m1164 -5
c13 -16 12 -17 -3 -4 -10 7 -18 15 -18 17 0 8 8 3 21 -13z m1324 -49 c-18 -64
-40 -104 -55 -104 -13 0 -13 52 1 87 10 28 59 86 66 79 2 -2 -3 -30 -12 -62z
m-1208 34 c-3 -8 -6 -5 -6 6 -1 11 2 17 5 13 3 -3 4 -12 1 -19z m-4323 -65
c-40 -89 -47 -99 -40 -57 8 44 35 104 46 104 6 0 9 3 9 8 -3 14 1 22 11 22 5
0 -6 -35 -26 -77z m3823 55 c-3 -8 -6 -5 -6 6 -1 11 2 17 5 13 3 -3 4 -12 1
-19z m-4010 -31 c-6 -20 -27 -19 -27 2 0 14 5 19 15 14 9 -3 14 -10 12 -16z
m4398 9 c-18 -13 -18 -24 1 -71 6 -16 3 -15 -13 5 -17 20 -19 29 -11 52 6 15
17 28 26 28 13 0 13 -2 -3 -14z m-378 -18 c-3 -8 -6 -5 -6 6 -1 11 2 17 5 13
3 -3 4 -12 1 -19z m-1337 8 c0 -3 -4 -8 -10 -11 -5 -3 -10 -1 -10 4 0 6 5 11
10 11 6 0 10 -2 10 -4z m140 -6 c0 -5 -7 -10 -16 -10 -8 0 -12 5 -9 10 3 6 10
10 16 10 5 0 9 -4 9 -10z m587 -12 c-3 -8 -6 -5 -6 6 -1 11 2 17 5 13 3 -3 4
-12 1 -19z m1073 -4 c0 -8 -4 -12 -10 -9 -5 3 -10 13 -10 21 0 8 5 12 10 9 6
-3 10 -13 10 -21z m-540 -19 c0 -5 -5 -3 -10 5 -5 8 -10 20 -10 25 0 6 5 3 10
-5 5 -8 10 -19 10 -25z m87 -27 c-3 -7 -5 -2 -5 12 0 14 2 19 5 13 2 -7 2 -19
0 -25z m-1324 4 c-10 -10 -20 -14 -22 -9 -2 5 3 13 10 18 24 15 30 10 12 -9z
m1777 -23 c0 -17 -3 -19 -13 -10 -8 6 -17 8 -20 4 -4 -3 -7 -1 -7 6 0 8 7 11
15 7 8 -3 15 -1 15 4 0 6 2 10 5 10 3 0 5 -10 5 -21z m-1319 -22 c-10 -9 -11
-8 -5 6 3 10 9 15 12 12 3 -3 0 -11 -7 -18z m830 -3 c21 -24 22 -26 3 -16 -25
13 -50 42 -37 42 5 0 20 -12 34 -26z m-3917 -45 c14 14 28 22 31 19 11 -11 6
-65 -12 -137 -21 -85 -22 -84 -69 49 -14 41 -30 80 -34 85 -27 38 -13 42 19 5
l39 -45 26 24z m2519 40 c-4 -13 -9 -17 -15 -11 -11 11 -3 32 12 32 4 0 6 -9
3 -21z m1801 5 c3 -8 2 -12 -4 -9 -6 3 -10 10 -10 16 0 14 7 11 14 -7z m-5105
-16 c-7 -13 -22 -36 -35 -51 -13 -15 -29 -46 -35 -67 -7 -22 -16 -40 -20 -40
-4 0 -8 -8 -8 -17 -1 -29 -21 -146 -26 -151 -6 -6 -9 47 -6 103 3 54 39 129
92 192 49 58 55 64 38 31z m3515 14 c3 -5 -8 -6 -25 -4 -16 2 -29 6 -29 8 0 8
49 4 54 -4z m1366 -18 c0 -14 -3 -14 -15 -4 -8 7 -15 14 -15 16 0 2 7 4 15 4
8 0 15 -7 15 -16z m74 7 c4 -5 -3 -7 -14 -4 -23 6 -26 13 -6 13 8 0 17 -4 20
-9z m-225 -31 c33 -17 51 -37 51 -58 0 -3 -10 4 -22 15 -13 11 -41 30 -63 41
-24 13 -33 21 -22 22 10 0 35 -9 56 -20z m-1202 -16 c-3 -3 -12 -4 -19 -1 -8
3 -5 6 6 6 11 1 17 -2 13 -5z m1446 -9 c-3 -9 -8 -14 -10 -11 -3 3 -2 9 2 15
9 16 15 13 8 -4z m467 5 c0 -5 -2 -10 -4 -10 -3 0 -8 5 -11 10 -3 6 -1 10 4
10 6 0 11 -4 11 -10z m-2163 -16 c-3 -3 -12 -4 -19 -1 -8 3 -5 6 6 6 11 1 17
-2 13 -5z m243 -25 c0 -5 -4 -9 -8 -9 -5 0 -9 7 -9 15 0 8 4 12 9 9 4 -3 8 -9
8 -15z m1532 -1 c-7 -7 -12 -8 -12 -2 0 14 12 26 19 19 2 -3 -1 -11 -7 -17z
m35 -55 c-2 -16 -4 -3 -4 27 0 30 2 43 4 28 2 -16 2 -40 0 -55z m1233 71 c29
-6 31 -10 26 -35 -3 -15 -30 -80 -61 -144 -51 -108 -57 -117 -78 -109 -12 4
-70 9 -130 11 l-108 4 -53 -55 c-51 -54 -56 -56 -105 -56 -54 0 -59 4 -36 33
7 11 11 26 8 34 -5 12 -1 14 15 8 13 -4 22 -2 22 4 0 6 8 11 18 11 9 0 23 9
30 21 13 20 14 20 27 2 12 -15 16 -16 27 -4 11 12 10 13 -5 8 -10 -4 -16 -3
-12 3 3 5 28 12 55 16 28 4 50 11 50 16 0 5 -15 7 -32 4 -33 -6 -33 -6 -5 5
15 6 27 15 27 20 0 13 -14 11 -28 -3 -9 -9 -12 -9 -12 -1 0 19 22 28 70 29 65
2 189 24 196 36 4 6 -1 8 -12 4 -60 -18 -149 -25 -149 -11 0 6 4 9 10 7 6 -2
7 0 2 4 -4 4 2 18 14 30 12 13 19 30 16 38 -8 21 27 39 61 33 18 -4 35 2 55
19 30 25 45 28 97 18z m-3025 -35 c-10 -15 -25 -10 -19 6 4 8 10 12 15 9 5 -3
7 -10 4 -15z m1274 -66 c-1 -60 -4 -80 -9 -63 -15 46 -10 150 6 150 2 0 4 -39
3 -87z m-899 53 c0 -2 -8 -10 -17 -17 -16 -13 -17 -12 -4 4 13 16 21 21 21 13z
m-4126 -28 c3 -13 6 -32 5 -43 0 -15 -5 -11 -19 15 -23 42 -24 50 -6 50 7 0
16 -10 20 -22z m3730 -20 c-4 -26 -15 -50 -28 -60 -31 -26 -43 -22 -17 6 12
13 26 40 32 60 14 49 21 46 13 -6z m31 -32 c-10 -15 -20 -24 -23 -22 -3 3 0
12 7 20 6 8 11 18 10 22 -3 20 2 27 12 17 8 -8 6 -18 -6 -37z m1862 -3 c-3
-10 -5 -2 -5 17 0 19 2 27 5 18 2 -10 2 -26 0 -35z m-481 -3 c-3 -17 -2 -29 3
-26 9 6 21 -118 20 -208 l-1 -61 -13 40 c-19 61 -31 285 -15 285 9 0 11 -10 6
-30z m-1190 -31 c-3 -18 0 -34 10 -44 9 -8 11 -15 5 -15 -6 0 -11 -8 -11 -17
-1 -16 -2 -16 -12 1 -13 23 -18 86 -7 86 5 0 5 7 2 17 -5 11 -3 14 6 8 8 -4
11 -18 7 -36z m1724 16 c4 11 5 -27 3 -85 -4 -115 -12 -194 -19 -188 -3 4 -13
83 -14 123 -2 35 15 175 18 155 4 -23 5 -23 12 -5z m-5382 -45 c-3 -16 -1 -30
2 -30 12 0 21 -76 29 -230 l7 -145 48 -92 c27 -50 46 -97 44 -104 -5 -16 -94
140 -90 158 2 9 -1 12 -8 8 -6 -3 -10 -3 -9 2 4 21 -2 33 -16 33 -8 0 -23 13
-33 28 -10 16 -24 26 -34 24 -18 -4 -60 55 -86 119 -12 33 -12 40 2 71 10 20
40 54 68 77 28 22 47 41 44 41 -15 0 -121 -82 -132 -102 -10 -19 -12 -18 -33
17 -25 43 -23 47 49 100 32 24 53 32 68 28 12 -3 22 -1 22 4 0 6 11 9 25 8 14
-2 25 1 25 6 0 5 3 9 6 9 4 0 4 -13 2 -30z m4423 -32 l-5 -53 -6 40 c-4 31 3
65 14 65 0 0 -1 -24 -3 -52z m833 -15 c-4 -38 -11 -75 -16 -83 -10 -16 -3 88
8 128 12 40 15 23 8 -45z m-1730 -24 c-17 -19 -17 -21 5 -49 14 -20 17 -30 9
-30 -7 -1 1 -12 17 -26 18 -16 22 -22 9 -15 -27 13 -39 29 -54 72 -12 32 -11
39 6 62 10 14 21 21 23 15 1 -5 -5 -18 -15 -29z m414 -60 c1 8 4 12 7 10 2 -3
-2 -23 -10 -44 -14 -40 -14 -39 -13 50 1 86 2 87 8 30 4 -33 7 -54 8 -46z
m-338 20 c0 -24 -23 -21 -28 4 -2 10 3 17 12 17 10 0 16 -9 16 -21z m2330 -29
c0 -5 -7 -10 -15 -10 -8 0 -24 -9 -35 -20 -11 -11 -32 -23 -47 -26 -16 -4 -37
-13 -48 -20 -11 -7 -37 -16 -57 -19 -39 -7 -74 -37 -64 -54 4 -5 -3 -12 -14
-16 -11 -3 -20 -9 -20 -13 0 -4 -17 -8 -38 -8 -53 -2 -109 -30 -116 -60 -4
-13 -14 -24 -22 -24 -29 0 -10 59 44 140 27 41 63 82 78 92 44 24 152 33 195
15 33 -13 37 -13 64 9 30 24 95 33 95 14z m-5553 -62 c-3 -7 -5 -2 -5 12 0 14
2 19 5 13 2 -7 2 -19 0 -25z m3565 -284 c-12 -21 -24 173 -14 235 5 37 8 21
15 -87 4 -74 4 -140 -1 -148z m544 246 c8 0 14 -9 14 -21 0 -11 5 -17 10 -14
18 11 10 -228 -10 -269 l-16 -36 -13 133 c-13 143 -14 166 -11 212 1 18 4 23
7 13 2 -10 11 -18 19 -18z m404 -106 c0 -16 -16 -19 -25 -4 -8 13 4 32 16 25
5 -4 9 -13 9 -21z m-3036 7 c6 -9 -30 -61 -42 -61 -4 0 -13 4 -21 9 -12 8 -12
13 3 35 16 25 49 35 60 17z m3001 -61 c10 -11 15 -23 12 -26 -4 -4 -9 1 -13
10 -3 9 -11 13 -17 9 -5 -3 -7 -1 -3 5 3 5 0 13 -6 15 -8 3 -8 6 -2 6 6 1 19
-8 29 -19z m1310 -22 c-11 -6 -45 -28 -75 -48 l-55 -37 0 36 c0 36 1 36 55 48
30 6 64 11 75 12 l20 0 -20 -11z m-4953 -48 c2 -22 0 -40 -4 -40 -5 0 -8 18
-8 40 0 22 2 40 4 40 2 0 6 -18 8 -40z m3635 18 c-2 -7 3 -19 12 -26 14 -11
13 -12 -6 -2 -14 6 -20 16 -17 25 7 18 17 20 11 3z m-2619 -35 c-2 -10 -13
-19 -26 -21 -24 -4 -29 7 -10 26 18 18 40 15 36 -5z m2698 -63 c1 -16 -2 -32
-7 -35 -4 -3 -5 -13 -2 -23 6 -16 6 -16 -11 0 -13 14 -15 22 -6 38 8 15 7 29
-5 57 l-16 38 22 -22 c13 -12 24 -36 25 -53z m1078 54 c9 -8 16 -17 16 -20 0
-2 -21 -15 -47 -29 -59 -30 -85 -50 -81 -61 1 -5 -3 -24 -9 -41 -10 -29 -16
-33 -45 -31 l-33 1 33 4 c33 4 41 16 21 29 -8 4 -3 12 12 21 46 26 -81 4 -141
-25 -30 -15 -58 -28 -62 -30 -12 -6 11 60 28 79 9 10 33 22 53 25 20 4 44 13
53 22 10 8 36 16 59 17 29 2 49 10 67 29 30 30 54 33 76 10z m107 -56 c-89
-156 -377 -496 -410 -483 -40 17 -93 17 -137 0 -25 -9 -43 -19 -41 -21 2 -2
20 3 40 11 43 18 90 19 119 4 20 -11 20 -11 -4 -36 -65 -70 -390 -293 -426
-293 -7 0 -23 25 -37 55 -22 51 -23 59 -11 104 13 50 76 134 119 158 12 7 42
13 67 13 58 2 117 28 133 59 15 31 112 81 152 79 17 -1 44 6 60 16 24 14 26
16 6 10 -22 -6 -23 -4 -17 22 13 53 49 93 112 126 57 30 62 35 67 72 3 21 14
51 24 64 20 27 152 90 191 91 22 1 22 1 -7 -51z m-4914 -25 c-3 -10 -5 -2 -5
17 0 19 2 27 5 18 2 -10 2 -26 0 -35z m3360 -75 c-3 -8 -6 -5 -6 6 -1 11 2 17
5 13 3 -3 4 -12 1 -19z m1276 15 c-7 -2 -21 -2 -30 0 -10 3 -4 5 12 5 17 0 24
-2 18 -5z m-3296 -9 c-3 -3 -12 -4 -19 -1 -8 3 -5 6 6 6 11 1 17 -2 13 -5z
m-167 -68 c0 -2 -8 -10 -17 -17 -16 -13 -17 -12 -4 4 13 16 21 21 21 13z
m3235 -15 l40 -18 -100 -5 c-55 -3 -102 -4 -104 -2 -6 6 82 43 104 43 11 0 38
-8 60 -18z m-179 -17 c-3 -9 -6 -18 -6 -20 0 -2 -4 -4 -9 -4 -5 0 -7 9 -4 20
3 11 10 20 15 20 6 0 7 -7 4 -16z m-4986 -35 c0 -18 -35 -18 -54 0 -23 24 -14
41 14 23 17 -10 18 -9 14 6 -5 14 -3 14 10 -2 9 -11 16 -23 16 -27z m1870 27
c0 -2 -8 -10 -17 -17 -16 -13 -17 -12 -4 4 13 16 21 21 21 13z m-766 -85 c3
-4 18 -7 33 -5 l28 4 -29 -9 c-15 -6 -49 -10 -75 -11 -84 -3 -101 -5 -101 -14
0 -4 -9 -6 -20 -3 -11 3 -20 2 -20 -2 0 -4 -7 -8 -15 -8 -24 0 -18 7 23 24 65
28 165 42 176 24z m73 -27 c-3 -3 -12 -4 -19 -1 -8 3 -5 6 6 6 11 1 17 -2 13
-5z m100 -20 c-3 -3 -12 -4 -19 -1 -8 3 -5 6 6 6 11 1 17 -2 13 -5z m-397 -8
c0 -2 -7 -7 -16 -10 -8 -3 -12 -2 -9 4 6 10 25 14 25 6z m3260 -337 c7 -27 16
-49 20 -49 5 0 23 17 40 38 18 20 27 28 22 17 -6 -11 -24 -33 -41 -49 l-30
-29 -20 34 c-23 37 -29 105 -21 222 2 29 5 15 11 -46 4 -49 13 -111 19 -138z
m87 149 c-3 -8 -6 -5 -6 6 -1 11 2 17 5 13 3 -3 4 -12 1 -19z m-3570 -47 c-13
-14 -27 -33 -30 -41 -5 -13 -6 -13 -6 0 -1 23 38 82 50 74 7 -4 2 -16 -14 -33z
m3623 -15 c0 -2 -12 -12 -27 -21 l-28 -18 19 21 c17 20 36 29 36 18z m-3659
-98 c-9 -20 -10 -18 -10 17 0 31 2 36 9 23 6 -10 7 -25 1 -40z m3436 -10 c6
-7 13 -22 17 -33 6 -17 4 -17 -18 4 -15 14 -26 28 -26 33 0 12 16 10 27 -4z
m117 -103 c-28 -34 -40 -43 -46 -33 -6 9 -7 6 -3 -8 3 -13 -1 -26 -10 -34 -13
-10 -15 -9 -15 7 0 25 43 91 78 120 43 36 40 1 -4 -52z m-514 30 c-7 -8 -19
-15 -27 -15 -7 0 -32 -9 -53 -20 -22 -11 -40 -17 -40 -12 0 5 10 13 23 19 104
48 116 51 97 28z m1050 -15 c0 -35 -76 -106 -160 -149 -43 -23 -82 -41 -87
-41 -4 0 25 18 66 40 84 44 123 78 154 133 24 43 27 45 27 17z m-2000 -26 c0
-9 -30 -47 -67 -85 -36 -38 -60 -69 -52 -69 8 0 20 5 26 11 13 13 8 -56 -7
-96 -13 -33 -54 -58 -81 -50 -18 6 -21 4 -16 -9 8 -21 -40 -43 -56 -27 -6 6
-9 12 -6 13 2 2 22 13 44 24 41 22 68 74 39 74 -16 0 -18 27 -4 50 8 14 172
180 178 180 1 0 2 -7 2 -16z m1507 -17 c-12 -13 -24 -22 -26 -20 -6 4 30 43
40 43 5 0 -2 -10 -14 -23z m566 -32 c-6 -17 -43 -21 -43 -4 0 5 4 8 9 5 5 -3
12 1 15 10 3 8 10 13 15 9 6 -3 8 -12 4 -20z m-3238 0 c22 -4 53 -14 68 -22
50 -25 87 -113 54 -126 -7 -3 -26 -3 -43 -1 -28 4 -28 4 -5 -6 14 -6 44 -10
68 -9 29 2 48 -3 62 -15 12 -11 21 -14 26 -7 16 26 125 2 155 -34 6 -7 14 -32
18 -56 6 -34 12 -44 31 -49 13 -3 29 -13 35 -22 15 -25 -30 -71 -61 -63 -13 3
-25 0 -30 -9 -8 -13 -74 -28 -70 -16 1 4 -11 18 -28 32 l-29 26 32 7 c37 8 49
20 27 29 -8 3 -15 1 -15 -4 0 -17 -40 -21 -100 -9 -57 11 -78 30 -47 42 7 4 8
6 1 6 -18 1 -37 -26 -24 -34 18 -11 11 -26 -8 -16 -26 14 -74 1 -95 -25 -19
-24 -47 -23 -47 3 0 8 5 11 13 7 9 -5 9 -4 0 6 -10 11 -16 11 -31 -3 -27 -24
-88 -22 -125 6 -22 15 -46 22 -79 22 -25 0 -46 -2 -46 -5 1 -20 -4 -30 -18
-30 -8 0 -13 -4 -9 -9 3 -5 1 -12 -5 -16 -5 -3 -10 -2 -10 4 0 6 -7 8 -16 4
-14 -5 -16 -1 -10 30 5 26 3 37 -5 37 -12 0 -8 94 5 107 3 3 18 -4 32 -18 l27
-24 -12 23 c-26 49 47 77 123 48 38 -14 45 -22 51 -52 6 -35 6 -35 49 -29 39
6 45 4 70 -25 15 -18 29 -30 32 -28 3 3 -7 20 -22 37 -23 28 -32 32 -68 29
-38 -3 -41 -1 -44 25 -2 16 0 36 4 45 4 10 7 19 6 22 0 3 9 6 21 6 12 1 49 6
82 11 l60 9 -30 16 c-16 9 -57 21 -90 28 -33 7 -70 19 -82 26 -29 18 -58 18
-73 -1 -17 -20 -70 -46 -70 -34 0 6 -4 7 -10 4 -5 -3 -10 2 -10 13 0 24 63 69
122 87 45 13 124 13 193 0z m3300 -5 c3 -5 -1 -10 -9 -10 -9 0 -16 5 -16 10 0
6 4 10 9 10 6 0 13 -4 16 -10z m-1301 -17 c-20 -14 -14 -58 17 -131 27 -63 33
-192 9 -192 -4 0 -10 31 -12 69 -4 53 -13 83 -40 134 -34 64 -35 67 -17 83 11
9 19 25 19 35 0 12 7 17 21 16 18 -1 19 -2 3 -14z m-94 -6 c-26 -21 -117 -142
-139 -185 -21 -41 -100 -117 -110 -106 -3 4 3 11 14 18 43 25 75 65 75 94 0
44 116 192 150 192 21 -1 23 -2 10 -13z m686 -2 c-11 -8 -24 -15 -30 -15 -5 0
-1 7 10 15 10 8 24 14 29 14 6 0 1 -6 -9 -14z m-4215 -28 c-10 -9 -11 -8 -5 6
3 10 9 15 12 12 3 -3 0 -11 -7 -18z m4969 19 c0 -2 -9 -6 -20 -9 -11 -3 -18
-1 -14 4 5 9 34 13 34 5z m-858 -18 c-9 -9 -9 -15 0 -25 9 -11 2 -22 -32 -51
-49 -42 -112 -105 -150 -148 -14 -16 -47 -49 -75 -72 -27 -24 -44 -41 -37 -37
7 4 25 8 39 10 l26 3 -24 -19 c-13 -10 -51 -22 -84 -26 l-60 -7 40 -7 c39 -6
39 -6 7 -8 -36 -1 -72 14 -72 29 0 6 8 10 18 10 9 0 42 23 72 51 30 27 78 68
107 89 29 22 65 59 82 82 31 45 79 93 121 121 30 19 38 21 22 5z m108 -14 c0
-9 -14 -32 -31 -52 -18 -20 -49 -73 -70 -119 -21 -46 -41 -83 -45 -83 -3 0 -4
7 0 15 5 14 -6 20 -29 15 -73 -16 -73 -15 -5 52 36 34 68 62 71 61 3 -1 14 16
24 38 18 40 60 89 76 89 5 0 9 -7 9 -16z m-1750 -35 c-10 -34 -20 -50 -20 -31
0 14 18 62 24 62 3 0 1 -14 -4 -31z m-1618 -73 c92 -71 138 -116 119 -116 -7
0 -43 27 -79 59 -37 33 -83 73 -102 90 -61 53 -23 33 62 -33z m4724 39 c3 -14
3 -33 -1 -42 -6 -15 -9 -13 -21 12 -17 40 -17 55 1 55 8 0 17 -11 21 -25z
m-1067 11 c-2 -2 -15 -9 -29 -15 -24 -11 -24 -11 -6 3 16 13 49 24 35 12z
m-1999 -35 c0 -6 -5 -13 -10 -16 -6 -4 -8 -10 -5 -15 3 -4 -1 -13 -8 -18 -10
-8 -13 -6 -14 11 -2 22 13 47 28 47 5 0 9 -4 9 -9z m3008 -16 c-3 -3 -9 2 -12
12 -6 14 -5 15 5 6 7 -7 10 -15 7 -18z m-5514 0 c-4 -8 -8 -15 -10 -15 -2 0
-4 7 -4 15 0 8 4 15 10 15 5 0 7 -7 4 -15z m31 5 c3 -5 1 -10 -4 -10 -6 0 -11
5 -11 10 0 6 2 10 4 10 3 0 8 -4 11 -10z m3159 2 c3 -5 -1 -9 -9 -9 -8 0 -15
4 -15 9 0 4 4 8 9 8 6 0 12 -4 15 -8z m-779 -31 c-3 -6 -16 -16 -28 -22 -21
-11 -21 -10 2 15 23 25 40 29 26 7z m759 -6 c3 -8 1 -15 -4 -15 -6 0 -10 7
-10 15 0 8 2 15 4 15 2 0 6 -7 10 -15z m-3074 -15 c0 -5 -2 -10 -4 -10 -3 0
-8 5 -11 10 -3 6 -1 10 4 10 6 0 11 -4 11 -10z m4160 6 c0 -2 -8 -10 -17 -17
-16 -13 -17 -12 -4 4 13 16 21 21 21 13z m-1812 -18 c-3 -7 -11 -13 -19 -13
-8 -1 -13 -6 -12 -11 1 -6 -22 -34 -51 -63 -47 -46 -62 -55 -117 -67 -84 -18
-84 -18 -65 11 9 14 13 25 9 25 -5 0 -16 -15 -26 -32 -10 -18 -45 -52 -78 -76
-33 -23 -57 -47 -54 -52 3 -6 1 -10 -4 -10 -6 0 -11 -7 -11 -15 0 -10 33 8 95
51 52 36 99 62 105 59 6 -4 8 -11 4 -16 -3 -5 -9 -7 -13 -5 -3 3 -17 -11 -30
-30 -26 -38 -155 -129 -170 -120 -5 4 -12 -2 -14 -11 -4 -16 -5 -16 -6 -1 0 9
6 23 14 32 16 16 20 31 6 22 -4 -3 -3 15 2 40 9 36 22 54 71 98 77 67 125 93
137 74 7 -10 9 -9 9 5 0 10 7 20 15 23 8 4 15 12 15 19 0 16 47 55 66 55 8 0
14 -5 14 -11 0 -5 -4 -8 -8 -5 -5 3 -16 -8 -26 -25 -21 -35 -17 -36 34 -4 22
14 43 25 48 25 5 0 17 9 27 20 20 22 39 27 33 8z m705 6 c3 -4 -23 -31 -59
-61 -53 -46 -62 -58 -52 -70 10 -13 8 -14 -12 -11 -34 4 -37 38 -7 66 24 23
107 80 118 81 3 1 8 -2 12 -5z m-557 -93 c-9 -10 -36 -31 -59 -46 -23 -14 -62
-53 -87 -86 -25 -33 -56 -66 -69 -72 -14 -7 -27 -18 -29 -26 -3 -8 0 -11 7 -7
6 4 11 5 11 2 0 -2 -30 -26 -67 -52 -68 -48 -108 -81 -148 -119 -11 -11 -19
-18 -18 -16 8 13 -22 30 -43 25 -14 -4 -24 -2 -24 4 0 18 59 58 168 112 106
53 109 56 202 189 23 34 53 60 90 80 65 36 92 41 66 12z m334 3 c-20 -23 -48
-36 -55 -25 -3 6 7 17 22 25 36 20 49 20 33 0z m1250 -4 c-28 -22 -125 -70
-141 -70 -9 0 148 86 161 89 3 0 -6 -8 -20 -19z m-827 -30 c-5 -20 -33 -29
-33 -10 0 7 25 27 37 30 0 0 -1 -9 -4 -20z m1217 -32 c18 -29 26 -47 19 -41
-16 13 -63 93 -55 93 2 0 19 -24 36 -52z m-1708 24 c-6 -2 -21 -21 -33 -42
-12 -22 -35 -44 -52 -51 -16 -7 -46 -29 -66 -49 -20 -20 -58 -52 -86 -70 -27
-19 -71 -53 -98 -76 -26 -23 -66 -49 -90 -57 -23 -8 -51 -18 -62 -22 -13 -5
-17 -5 -10 2 6 5 35 20 66 32 36 14 73 40 105 72 27 28 65 59 84 69 41 21 78
61 72 78 -2 7 1 12 8 12 6 0 28 11 48 25 21 14 30 25 21 25 -15 0 -109 -38
-151 -61 -34 -18 -30 -9 8 22 49 40 138 80 181 82 18 1 35 8 38 15 3 7 10 10
17 6 9 -6 9 -9 0 -12z m-2527 -22 c20 -39 19 -42 -7 -28 -13 7 -24 13 -24 13
-1 0 -5 10 -8 23 -11 34 20 28 39 -8z m1504 10 c13 0 61 -51 61 -64 0 -8 -29
-12 -89 -11 -52 0 -87 4 -83 9 3 6 -3 6 -14 2 -10 -5 -35 -10 -54 -12 l-35 -3
35 11 35 11 -27 9 c-34 12 -36 26 -5 32 64 13 144 23 155 19 8 -1 17 -3 21 -3z
m526 0 c-3 -5 -12 -10 -18 -10 -7 0 -6 4 3 10 19 12 23 12 15 0z m-2348 -22
c-3 -8 -6 -5 -6 6 -1 11 2 17 5 13 3 -3 4 -12 1 -19z m2303 2 c-8 -5 -19 -10
-25 -10 -5 0 -3 5 5 10 8 5 20 10 25 10 6 0 3 -5 -5 -10z m970 2 c0 -5 -18
-17 -40 -27 -22 -10 -47 -26 -56 -36 -16 -18 -40 -17 -29 2 4 5 2 9 -3 9 -10
0 -48 -41 -92 -99 -13 -18 -33 -37 -43 -43 -16 -8 -15 -2 9 42 35 64 121 140
166 147 18 3 35 7 37 9 8 8 51 4 51 -4z m-282 -32 c-14 -11 -24 -14 -27 -8 -5
14 29 39 41 32 4 -3 -2 -14 -14 -24z m-3168 -15 c0 -5 -5 -3 -10 5 -5 8 -10
20 -10 25 0 6 5 3 10 -5 5 -8 10 -19 10 -25z m1732 14 c-2 -10 1 -9 11 3 10
13 16 15 25 6 16 -16 15 -38 0 -38 -7 1 -24 7 -38 15 -22 12 -28 11 -45 -3
-20 -17 -20 -17 -2 4 14 17 15 23 5 27 -7 3 1 4 17 3 20 -2 29 -7 27 -17z
m2038 3 c0 -5 -11 -19 -25 -32 -14 -13 -25 -18 -25 -11 0 7 -6 9 -12 6 -7 -4
0 5 15 19 28 26 47 33 47 18z m-3712 -14 c5 -7 13 -24 16 -38 7 -25 7 -25 -11
3 -10 15 -21 27 -25 27 -5 0 -8 5 -8 10 0 14 16 13 28 -2z m1420 -12 c65 -33
86 -58 79 -95 -6 -28 -5 -29 41 -35 81 -10 91 -24 90 -111 -1 -41 -5 -75 -8
-75 -3 0 -7 -14 -8 -32 -4 -49 -26 -55 -34 -10 -3 20 -4 47 -1 58 2 12 0 25
-6 28 -7 5 -11 -8 -11 -39 0 -25 -4 -44 -8 -41 -5 3 -6 -8 -4 -25 3 -17 0 -29
-7 -29 -6 0 -19 -8 -30 -19 -18 -18 -19 -17 -36 64 -9 46 -14 88 -11 94 4 6 2
11 -3 11 -6 0 -11 8 -11 18 0 9 -14 46 -30 81 -17 36 -29 72 -27 80 3 10 5 8
6 -6 2 -40 62 -58 81 -24 15 30 4 44 -52 66 -33 13 -54 28 -59 43 -10 27 -9
27 49 -2z m2519 18 c-3 -3 -12 -4 -19 -1 -8 3 -5 6 6 6 11 1 17 -2 13 -5z
m1903 -18 c41 -22 45 -28 55 -77 9 -48 13 -54 35 -55 14 -1 35 -6 47 -12 12
-7 32 -12 45 -12 15 0 46 -22 88 -63 91 -87 472 -367 501 -367 5 0 9 -5 9 -10
0 -7 -6 -7 -19 0 -11 5 -27 7 -35 4 -9 -3 -30 3 -48 14 -42 25 -88 36 -88 22
0 -6 4 -20 10 -30 8 -15 5 -18 -26 -22 -20 -2 -48 2 -62 10 -15 7 -40 11 -57
9 -21 -3 -43 3 -73 22 -36 22 -42 30 -38 53 9 46 -52 103 -67 63 -5 -11 -12
-12 -35 -4 -47 16 -69 48 -75 108 -5 45 -13 61 -43 92 -25 26 -32 38 -22 42
10 4 10 8 -2 16 -23 17 -40 13 -33 -6 4 -11 -6 -6 -28 14 -19 17 -62 54 -96
82 l-62 51 22 40 c25 46 36 48 97 16z m-2813 -18 c-3 -7 -5 -2 -5 12 0 14 2
19 5 13 2 -7 2 -19 0 -25z m492 6 c-15 -18 -22 -13 -13 10 3 9 10 13 16 10 5
-3 4 -12 -3 -20z m2199 9 c-4 -22 -22 -20 -26 1 -2 10 3 16 13 16 10 0 15 -7
13 -17z m-3628 -3 c-8 -5 -11 -10 -6 -10 5 0 3 -7 -4 -15 -7 -8 -18 -15 -24
-15 -6 0 -2 7 8 15 11 8 16 15 11 15 -5 0 -16 -7 -26 -16 -10 -9 -23 -13 -29
-9 -18 11 30 39 75 44 6 0 3 -4 -5 -9z m1394 -7 c8 -21 -12 -35 -42 -28 -17 4
-21 2 -16 -6 5 -9 -1 -10 -20 -5 -20 5 -26 4 -20 -5 5 -9 0 -10 -18 -6 -19 5
-30 1 -46 -18 -12 -14 -22 -33 -23 -43 0 -12 -3 -10 -10 7 -19 48 10 77 106
107 56 18 82 17 89 -3z m116 -4 c10 -6 5 -7 -15 -3 -23 4 -26 3 -15 -5 12 -9
10 -11 -12 -11 -21 0 -25 4 -21 20 6 21 27 20 63 -1z m-1569 -44 c8 6 10 4 4
-4 -4 -7 -17 -10 -30 -7 -23 6 -51 -15 -38 -27 3 -4 -3 -7 -15 -7 -19 0 -20 3
-10 25 6 14 15 25 20 25 4 0 8 8 8 17 0 14 4 13 24 -6 15 -14 30 -20 37 -16z
m1029 10 c-7 -8 -16 -13 -20 -10 -4 2 -12 -7 -18 -20 -7 -14 -17 -25 -23 -25
-14 0 4 26 40 57 27 24 42 23 21 -2z m2218 -23 c3 -17 -2 -22 -17 -22 -22 0
-25 8 -15 35 9 22 28 14 32 -13z m-3187 1 c-16 -29 -62 -75 -69 -68 -5 5 66
85 75 85 2 0 -1 -8 -6 -17z m2839 -32 c-1 -10 -6 -7 -15 9 -19 33 -18 50 0 26
8 -11 15 -27 15 -35z m-4183 13 c3 -8 1 -20 -6 -27 -8 -8 -11 -8 -11 0 0 6 -3
18 -6 27 -3 9 -1 16 5 16 7 0 14 -7 18 -16z m-800 -46 c-11 -21 -25 -38 -30
-38 -5 0 -6 -23 -3 -54 6 -48 5 -55 -12 -60 -10 -4 -29 -17 -41 -30 -19 -20
-20 -24 -6 -36 12 -10 15 -10 15 3 0 8 7 17 15 21 8 3 15 2 15 -1 0 -13 -44
-53 -57 -53 -7 0 -18 -11 -24 -24 -9 -19 -8 -29 4 -47 16 -22 15 -23 -32 -44
-26 -13 -75 -30 -107 -40 -32 -9 -64 -21 -71 -26 -6 -6 -23 -7 -37 -3 -19 4
-26 2 -26 -9 0 -15 -20 -27 -46 -27 -8 0 -14 8 -14 18 0 10 -17 35 -39 56 -42
41 -51 36 -51 -30 0 -30 -2 -33 -17 -26 -10 5 -25 7 -33 5 -46 -14 -46 -14
-26 -29 18 -12 6 -14 -100 -14 l-119 1 40 23 c22 13 73 44 113 68 89 52 337
241 407 309 33 32 59 49 75 49 49 0 143 36 151 58 6 16 16 20 43 19 l34 -2
-21 -37z m236 3 c14 8 18 8 13 0 -4 -7 1 -11 13 -11 13 0 26 -12 36 -30 17
-33 20 -96 5 -105 -5 -3 -10 -15 -10 -26 0 -17 -5 -19 -32 -14 -18 4 -57 7
-85 9 -29 1 -55 5 -58 8 -8 8 -8 91 -1 116 4 12 12 20 17 16 6 -3 17 0 25 7
11 9 18 9 26 1 16 -16 28 -15 28 3 0 8 -4 15 -10 15 -5 0 -10 5 -10 12 0 9 3
9 12 0 8 -8 17 -8 31 -1z m2672 -21 c-4 -12 -9 -19 -12 -17 -3 3 -2 15 2 27 4
12 9 19 12 17 3 -3 2 -15 -2 -27z m2093 5 c-3 -3 -9 2 -12 12 -6 14 -5 15 5 6
7 -7 10 -15 7 -18z m872 -35 c0 -8 -9 0 -20 18 -11 18 -20 36 -20 40 1 14 40
-43 40 -58z m-3901 38 c11 -10 13 -10 7 0 -5 8 0 12 15 12 22 0 22 -1 -6 -30
-15 -16 -32 -27 -37 -24 -4 3 -8 0 -8 -5 0 -19 -22 -12 -46 14 -22 24 -22 25
-4 25 11 0 20 -7 20 -15 0 -8 5 -15 10 -15 6 0 10 8 10 18 0 32 17 40 39 20z
m-1884 -118 c0 -118 -15 -138 -17 -24 -1 56 8 134 15 134 1 0 2 -49 2 -110z
m1789 69 c31 -24 34 -53 6 -72 -10 -7 -24 -24 -30 -38 -23 -52 -61 -106 -47
-67 8 21 -9 34 -17 13 -3 -9 -18 -15 -40 -15 -34 0 -34 0 -26 36 6 27 4 46 -8
71 -20 42 -10 63 39 80 51 18 93 15 123 -8z m1199 6 c-3 -9 -8 -14 -10 -11 -3
3 -2 9 2 15 9 16 15 13 8 -4z m-2443 -49 c0 -6 -9 -24 -19 -39 l-18 -29 -5 30
c-2 16 -1 40 4 52 7 18 11 20 23 10 8 -7 15 -18 15 -24z m2381 11 c-10 -9 -11
-8 -5 6 3 10 9 15 12 12 3 -3 0 -11 -7 -18z m109 3 c-6 -11 -18 -20 -28 -20
-9 -1 -34 -7 -54 -14 -21 -8 -38 -12 -38 -10 0 8 60 34 78 34 11 0 25 7 32 15
18 21 23 19 10 -5z m916 4 c-4 -9 -1 -24 6 -33 11 -15 10 -15 -5 0 -16 13 -15
49 0 49 3 0 2 -7 -1 -16z m-2084 -21 c7 -29 -11 -82 -32 -93 -14 -7 -20 -7
-20 0 0 5 8 11 18 11 14 1 14 2 1 6 -11 3 -14 13 -11 36 7 51 35 76 44 40z
m3862 -42 c30 -58 40 -108 29 -139 -8 -22 -12 -17 -41 45 -20 44 -32 85 -32
112 0 51 12 47 44 -18z m-5046 21 c12 -8 22 -22 22 -31 -1 -14 -2 -14 -11 2
-13 23 -69 52 -69 36 0 -7 -3 -10 -6 -6 -3 3 -3 10 0 16 7 11 29 5 64 -17z
m-211 -34 c-3 -8 -6 -5 -6 6 -1 11 2 17 5 13 3 -3 4 -12 1 -19z m2233 12 c0
-5 -8 -10 -17 -10 -15 0 -16 2 -3 10 19 12 20 12 20 0z m-720 -4 c0 -2 -7 -7
-16 -10 -8 -3 -12 -2 -9 4 6 10 25 14 25 6z m1699 -66 c0 -23 -1 -23 -9 -5 -5
11 -9 31 -9 45 0 23 1 23 9 5 5 -11 9 -31 9 -45z m2261 50 c0 -5 -2 -10 -4
-10 -3 0 -8 5 -11 10 -3 6 -1 10 4 10 6 0 11 -4 11 -10z m-4310 -4 c0 -3 -4
-8 -10 -11 -5 -3 -10 -1 -10 4 0 6 5 11 10 11 6 0 10 -2 10 -4z m395 -6 c-3
-5 -13 -10 -21 -10 -8 0 -13 -4 -10 -9 12 -19 -94 -85 -110 -68 -3 3 7 8 23
12 34 7 95 54 73 56 -8 0 -1 7 15 14 37 17 38 17 30 5z m-1880 -28 c-3 -3 -11
0 -18 7 -9 10 -8 11 6 5 10 -3 15 -9 12 -12z m2132 3 c0 -8 -4 -12 -9 -9 -5 3
-6 10 -3 15 9 13 12 11 12 -6z m-1877 -5 c0 -5 -5 -10 -11 -10 -5 0 -7 5 -4
10 3 6 8 10 11 10 2 0 4 -4 4 -10z m527 -37 c-3 -10 -5 -2 -5 17 0 19 2 27 5
18 2 -10 2 -26 0 -35z m410 6 c-7 -12 -13 -15 -16 -7 -2 7 1 14 8 16 6 2 8 9
5 14 -4 7 -2 8 4 4 9 -5 8 -12 -1 -27z m4258 7 c19 -8 35 -20 35 -25 0 -14 -2
-14 -50 5 -22 9 -40 20 -40 25 0 13 15 11 55 -5z m-4431 -52 c145 -36 147 -37
141 -61 -13 -55 -53 -90 -70 -63 -10 16 -21 12 -33 -14 -7 -17 -21 -25 -46
-28 -19 -2 -34 0 -33 5 1 5 -17 16 -40 24 -34 12 -43 20 -49 46 -3 18 -17 53
-30 79 -29 58 -31 72 -5 59 10 -6 84 -27 165 -47z m-1019 36 c-3 -5 -13 -10
-21 -10 -8 0 -14 5 -14 10 0 6 9 10 21 10 11 0 17 -4 14 -10z m2134 0 c-6 -5
-18 -6 -26 -3 -19 8 -16 11 13 11 17 0 22 -3 13 -8z m-2109 -4 c0 -2 -8 -10
-17 -17 -16 -13 -17 -12 -4 4 13 16 21 21 21 13z m1192 -22 c-3 -18 -7 -20
-17 -11 -7 7 -9 14 -4 15 5 2 7 7 5 11 -3 4 1 8 8 8 8 0 11 -9 8 -23z m1918
22 c0 -2 -7 -6 -15 -10 -8 -3 -15 -1 -15 4 0 6 7 10 15 10 8 0 15 -2 15 -4z
m-1615 -36 c-4 -6 -12 -9 -18 -7 -7 2 -31 -2 -55 -9 -39 -11 -43 -11 -40 4 2
11 13 17 31 17 15 -1 27 2 27 6 0 11 43 17 54 8 4 -4 5 -12 1 -19z m658 23
c-7 -2 -19 -2 -25 0 -7 3 -2 5 12 5 14 0 19 -2 13 -5z m859 -16 c-18 -7 -37
-18 -41 -26 -9 -14 -62 -11 -60 4 1 11 71 32 109 33 22 0 21 -1 -8 -11z
m-2695 -19 c-3 -8 -6 -5 -6 6 -1 11 2 17 5 13 3 -3 4 -12 1 -19z m2883 9 c0
-2 -14 -16 -31 -33 -26 -24 -30 -25 -20 -7 11 22 51 53 51 40z m348 -11 c-14
-13 -111 -66 -123 -66 -31 0 93 77 128 79 5 1 2 -5 -5 -13z m1772 3 c0 -5 5
-7 12 -3 7 4 8 3 4 -5 -6 -9 -11 -9 -22 0 -17 14 -18 19 -4 19 6 0 10 -5 10
-11z m-3456 -8 c3 -5 -1 -11 -9 -15 -9 -3 -15 0 -15 9 0 16 16 20 24 6z m-644
-26 c0 -9 -6 -12 -17 -8 -10 4 -14 2 -10 -4 4 -6 -4 -18 -18 -27 -24 -16 -25
-16 -14 11 17 44 59 64 59 28z m4605 15 c3 -5 1 -10 -4 -10 -6 0 -11 5 -11 10
0 6 2 10 4 10 3 0 8 -4 11 -10z m-4985 -38 c0 -7 -4 -10 -10 -7 -5 3 -10 16
-10 28 0 18 2 19 10 7 5 -8 10 -21 10 -28z m500 26 c0 -7 -16 -30 -35 -51 -19
-21 -35 -43 -36 -50 0 -7 -4 -4 -7 6 -7 16 -10 16 -47 -3 -52 -26 -85 -27 -78
-1 3 14 25 26 71 40 37 11 81 32 97 45 35 30 35 30 35 14z m485 2 c4 -6 -6
-10 -22 -10 -22 0 -25 2 -13 10 19 12 27 12 35 0z m2102 -16 c-3 -3 -12 -4
-19 -1 -8 3 -5 6 6 6 11 1 17 -2 13 -5z m-2297 -18 c0 -3 -4 -8 -10 -11 -5 -3
-10 -1 -10 4 0 6 5 11 10 11 6 0 10 -2 10 -4z m756 -18 l19 -21 -27 18 c-29
18 -34 25 -20 25 5 0 17 -10 28 -22z m-679 6 c-3 -3 -12 -4 -19 -1 -8 3 -5 6
6 6 11 1 17 -2 13 -5z m-857 -8 c0 -2 -7 -7 -16 -10 -8 -3 -12 -2 -9 4 6 10
25 14 25 6z m2550 -20 c-17 -17 -124 -61 -116 -48 3 5 27 17 53 27 26 10 52
22 58 26 16 15 20 10 5 -5z m1787 -18 c-3 -8 -6 -5 -6 6 -1 11 2 17 5 13 3 -3
4 -12 1 -19z m-4098 -44 c-14 -18 -52 -38 -89 -48 -14 -4 2 9 35 28 69 40 72
42 54 20z m-104 -4 c-3 -5 -12 -10 -18 -10 -7 0 -6 4 3 10 19 12 23 12 15 0z
m775 -10 c-8 -5 -19 -10 -25 -10 -5 0 -3 5 5 10 8 5 20 10 25 10 6 0 3 -5 -5
-10z m4850 -10 c12 -8 10 -9 -10 -9 -14 1 -38 5 -55 9 -29 7 -29 8 10 9 22 0
47 -4 55 -9z m-7905 -40 c4 -6 -20 -9 -67 -9 -62 2 -67 3 -33 9 61 11 93 11
100 0z"/>
<path d="M4818 8083 c6 -2 18 -2 25 0 6 3 1 5 -13 5 -14 0 -19 -2 -12 -5z"/>
<path d="M4913 8073 c9 -2 25 -2 35 0 9 3 1 5 -18 5 -19 0 -27 -2 -17 -5z"/>
<path d="M3655 7993 c-83 -17 -155 -36 -152 -39 6 -6 160 28 172 38 5 4 7 7 5
7 -3 -1 -14 -3 -25 -6z"/>
<path d="M6667 7505 c11 -8 34 -20 50 -25 l28 -11 -27 26 c-15 14 -37 25 -50
25 l-22 0 21 -15z"/>
<path d="M3432 7734 c2 -11 11 -20 22 -22 13 -3 17 1 14 14 -2 11 -11 20 -22
22 -13 3 -17 -1 -14 -14z"/>
<path d="M3197 7712 c-15 -15 -27 -33 -27 -39 0 -20 20 -25 37 -11 9 7 24 14
35 14 10 1 20 2 23 3 8 2 -24 61 -33 61 -5 0 -20 -13 -35 -28z"/>
<path d="M3280 7690 c0 -5 5 -10 10 -10 6 0 10 5 10 10 0 6 -4 10 -10 10 -5 0
-10 -4 -10 -10z"/>
<path d="M3320 7649 c0 -5 -4 -7 -10 -4 -15 10 -12 -5 6 -22 11 -12 12 -18 4
-23 -8 -5 -9 -16 -4 -31 4 -13 7 -33 6 -44 -6 -52 -13 -64 -41 -70 -17 -3 -33
-16 -40 -31 -14 -33 -14 -87 1 -102 29 -29 108 -1 108 39 0 25 19 25 28 -1 6
-17 10 -18 32 -7 36 18 38 60 6 91 -30 27 -34 49 -8 39 15 -6 16 -5 2 13 -8
10 -25 27 -37 37 -13 10 -23 23 -23 29 0 6 9 3 20 -7 11 -10 20 -14 20 -10 0
5 6 0 14 -10 12 -16 16 -17 29 -6 9 7 13 19 11 26 -6 14 -64 39 -72 30 -3 -3
-13 13 -23 35 -18 39 -29 51 -29 29z m50 -150 c0 -11 -4 -18 -10 -14 -5 3 -7
12 -3 20 7 21 13 19 13 -6z"/>
<path d="M3260 7641 c0 -5 7 -11 15 -15 8 -3 16 -16 16 -28 1 -16 3 -18 6 -6
5 20 -13 58 -27 58 -6 0 -10 -4 -10 -9z"/>
<path d="M3009 7591 c-20 -11 -41 -17 -45 -13 -5 4 -2 -1 5 -10 7 -10 17 -15
22 -12 5 3 9 0 9 -7 0 -8 7 -6 19 5 10 9 28 18 40 19 14 1 21 7 19 17 -5 22
-29 23 -69 1z"/>
<path d="M3210 7590 c0 -5 7 -10 16 -10 8 0 12 5 9 10 -3 6 -10 10 -16 10 -5
0 -9 -4 -9 -10z"/>
<path d="M3225 7559 c-11 -17 1 -21 15 -4 8 9 8 15 2 15 -6 0 -14 -5 -17 -11z"/>
<path d="M2840 7535 c0 -3 4 -13 9 -23 5 -9 13 -26 16 -37 4 -11 9 -15 12 -8
2 6 -3 25 -12 42 -14 28 -25 39 -25 26z"/>
<path d="M2890 7509 c0 -5 5 -7 10 -4 6 3 10 8 10 11 0 2 -4 4 -10 4 -5 0 -10
-5 -10 -11z"/>
<path d="M3266 7513 c-11 -11 -6 -23 9 -23 8 0 15 4 15 9 0 13 -16 22 -24 14z"/>
<path d="M3162 7490 c1 -13 9 -25 16 -28 17 -5 15 23 -4 39 -14 11 -15 10 -12
-11z"/>
<path d="M2831 7458 c5 -18 9 -35 9 -37 0 -3 5 0 10 5 8 8 7 19 -1 37 -17 38
-29 34 -18 -5z"/>
<path d="M2940 7470 c0 -18 -3 -21 -9 -11 -5 7 -11 9 -14 4 -8 -13 5 -29 23
-28 18 0 26 33 11 48 -8 8 -11 4 -11 -13z"/>
<path d="M3015 7428 c-5 -18 -1 -36 11 -57 19 -33 29 -38 39 -21 3 6 -1 10
-10 10 -11 0 -15 6 -11 18 3 9 -1 31 -8 47 l-13 30 -8 -27z"/>
<path d="M2900 7422 c0 -4 6 -14 13 -21 10 -11 10 -13 0 -7 -18 10 -17 -19 1
-33 11 -9 15 -5 20 21 4 21 2 34 -6 40 -17 10 -28 10 -28 0z"/>
<path d="M2957 7379 c7 -38 41 -99 54 -99 9 0 3 19 -18 60 -7 14 -13 30 -13
36 0 6 -7 17 -15 24 -13 11 -14 8 -8 -21z"/>
<path d="M2850 7351 c0 -22 20 -51 35 -51 22 0 18 13 -10 40 -14 13 -25 18
-25 11z"/>
<path d="M3441 7336 c-10 -11 -9 -21 4 -45 20 -40 28 -39 19 2 -4 17 -7 38 -7
45 0 15 -2 15 -16 -2z"/>
<path d="M3410 7327 c0 -20 -16 -23 -23 -4 -3 6 -6 2 -6 -10 -1 -29 25 -30 34
-2 4 11 4 23 1 26 -3 4 -6 -1 -6 -10z"/>
<path d="M2692 7303 c9 -9 30 -18 45 -19 l28 -3 -25 19 c-14 11 -34 20 -45 20
-18 0 -18 -1 -3 -17z"/>
<path d="M3325 7280 c3 -5 11 -10 16 -10 6 0 7 5 4 10 -3 6 -11 10 -16 10 -6
0 -7 -4 -4 -10z"/>
<path d="M4183 7133 c-21 -8 -15 -20 13 -27 15 -4 28 -5 30 -3 8 8 -31 34 -43
30z"/>
<path d="M2527 7104 c-16 -16 76 -180 95 -168 4 3 0 18 -11 33 -11 15 -31 53
-45 84 -25 58 -28 62 -39 51z"/>
<path d="M4060 7079 c0 -5 9 -9 20 -9 11 0 20 2 20 4 0 2 -9 6 -20 9 -11 3
-20 1 -20 -4z"/>
<path d="M4320 7083 c0 -10 39 -46 70 -65 29 -18 90 -31 90 -19 0 15 -35 39
-68 46 -18 4 -37 15 -42 26 -10 18 -50 27 -50 12z"/>
<path d="M3825 6826 c-9 -13 -17 -43 -18 -67 l-2 -43 45 -2 c43 -3 44 -2 23
12 -20 14 -21 18 -7 49 18 45 18 52 -6 65 -16 8 -22 6 -35 -14z"/>
<path d="M4666 6726 c6 -16 17 -21 74 -31 26 -5 31 -3 20 4 -8 6 -24 11 -35
11 -11 0 -30 7 -43 15 -19 14 -21 14 -16 1z"/>
<path d="M4090 6680 c0 -20 49 -83 50 -63 0 6 -7 18 -15 27 -8 8 -12 21 -9 29
3 8 -2 17 -10 20 -11 5 -16 0 -16 -13z"/>
<path d="M4690 6664 c28 -15 78 -18 99 -5 21 14 -1 20 -65 20 -54 -1 -57 -2
-34 -15z"/>
<path d="M4835 6650 c3 -5 10 -10 16 -10 5 0 9 5 9 10 0 6 -7 10 -16 10 -8 0
-12 -4 -9 -10z"/>
<path d="M2700 6638 c0 -16 41 -58 56 -58 5 1 -1 9 -13 19 -12 10 -20 21 -17
23 2 3 -2 11 -11 18 -12 10 -15 10 -15 -2z"/>
<path d="M3833 6617 c9 -8 17 -17 17 -20 0 -4 -8 -3 -17 0 -20 7 -21 10 35
-64 33 -42 55 -47 90 -20 13 10 18 7 80 -45 37 -32 58 -35 90 -12 27 18 23 25
-43 86 -55 51 -120 74 -127 44 -2 -14 -8 -13 -38 8 -39 27 -119 48 -87 23z"/>
<path d="M4855 6620 c3 -5 8 -10 11 -10 2 0 4 5 4 10 0 6 -5 10 -11 10 -5 0
-7 -4 -4 -10z"/>
<path d="M4160 6581 c0 -6 7 -8 16 -4 9 3 20 0 26 -8 8 -12 9 -11 5 1 -4 17
-47 27 -47 11z"/>
<path d="M4732 6574 c3 -16 18 -24 77 -40 11 -4 11 -7 0 -21 -12 -15 -12 -16
4 -10 10 4 32 7 48 7 20 0 28 4 23 11 -4 7 7 4 24 -7 34 -20 55 -12 31 12 -10
9 -41 16 -83 19 -67 5 -104 16 -98 32 2 4 -4 10 -13 11 -12 3 -16 -2 -13 -14z"/>
<path d="M4900 6472 c0 -12 19 -26 26 -19 2 2 -2 10 -11 17 -9 8 -15 8 -15 2z"/>
<path d="M4790 6460 c0 -5 5 -10 11 -10 5 0 7 5 4 10 -3 6 -8 10 -11 10 -2 0
-4 -4 -4 -10z"/>
<path d="M4633 6448 c4 -10 2 -18 -2 -18 -5 0 -11 -7 -14 -14 -4 -10 -1 -13 7
-10 16 6 56 -41 56 -64 0 -11 3 -13 10 -6 7 7 -1 29 -26 70 -20 32 -34 51 -31
42z"/>
<path d="M4161 6445 c0 -5 6 -19 14 -29 8 -11 15 -15 15 -10 0 6 -7 19 -15 30
-8 10 -14 15 -14 9z"/>
<path d="M4727 6416 c-6 -14 0 -26 14 -26 8 0 6 26 -3 35 -3 3 -8 -1 -11 -9z"/>
<path d="M4105 6390 c3 -5 11 -10 16 -10 6 0 7 5 4 10 -3 6 -11 10 -16 10 -6
0 -7 -4 -4 -10z"/>
<path d="M5088 6373 c7 -3 16 -2 19 1 4 3 -2 6 -13 5 -11 0 -14 -3 -6 -6z"/>
<path d="M4115 6360 c3 -5 8 -10 11 -10 2 0 4 5 4 10 0 6 -5 10 -11 10 -5 0
-7 -4 -4 -10z"/>
<path d="M4150 6346 c0 -17 16 -30 23 -19 3 5 -1 14 -9 21 -12 10 -14 10 -14
-2z"/>
<path d="M4195 6311 c-3 -5 -1 -12 5 -16 5 -3 10 1 10 9 0 18 -6 21 -15 7z"/>
<path d="M4585 6290 c3 -5 13 -10 21 -10 8 0 12 5 9 10 -3 6 -13 10 -21 10 -8
0 -12 -4 -9 -10z"/>
<path d="M4647 6283 c-3 -5 1 -17 9 -28 14 -18 14 -18 14 2 0 23 -15 39 -23
26z"/>
<path d="M4748 6283 c6 -2 12 -9 12 -14 0 -6 -5 -7 -12 -3 -7 4 -8 3 -4 -4 8
-14 36 -16 36 -4 0 12 -22 32 -34 31 -6 0 -5 -3 2 -6z"/>
<path d="M5166 6280 c-15 -5 -16 -9 -7 -14 7 -5 18 -3 24 3 14 14 6 20 -17 11z"/>
<path d="M4235 6271 c-8 -15 3 -31 21 -31 9 0 14 7 12 17 -4 20 -24 28 -33 14z"/>
<path d="M5233 6256 c0 -8 14 -28 30 -43 31 -30 26 -11 -11 36 -14 17 -19 19
-19 7z"/>
<path d="M4845 6230 c-8 -13 3 -50 16 -50 12 0 12 47 0 55 -5 3 -12 1 -16 -5z"/>
<path d="M4275 6210 c3 -5 13 -10 21 -10 8 0 14 5 14 10 0 6 -9 10 -21 10 -11
0 -17 -4 -14 -10z"/>
<path d="M3165 6190 c17 -11 35 -20 40 -20 6 0 -3 9 -20 20 -16 11 -34 20 -40
20 -5 0 4 -9 20 -20z"/>
<path d="M4399 6156 c8 -10 24 -22 35 -28 20 -11 20 -10 5 13 -9 13 -25 26
-35 28 -16 3 -17 1 -5 -13z"/>
<path d="M4397 6083 c-12 -12 -7 -53 6 -53 19 0 50 37 42 49 -7 12 -38 15 -48
4z"/>
<path d="M3320 6071 c0 -5 12 -17 28 -26 l27 -18 -24 27 c-26 28 -31 31 -31
17z"/>
<path d="M4010 6033 c0 -5 11 -20 24 -32 21 -20 27 -21 45 -9 28 17 26 24 -6
31 -16 3 -36 9 -45 12 -10 4 -18 3 -18 -2z"/>
<path d="M4480 5995 c-10 -12 -9 -16 3 -21 21 -8 37 3 30 21 -7 19 -17 19 -33
0z"/>
<path d="M4124 5965 c-7 -17 12 -45 31 -45 18 0 27 30 14 46 -15 18 -38 18
-45 -1z"/>
<path d="M3865 5706 c17 -14 35 -26 40 -26 11 1 -20 27 -50 41 -11 6 -6 -1 10
-15z"/>
<path d="M5125 5350 c3 -5 8 -10 11 -10 2 0 4 5 4 10 0 6 -5 10 -11 10 -5 0
-7 -4 -4 -10z"/>
<path d="M1996 6825 c4 -8 8 -15 10 -15 2 0 4 7 4 15 0 8 -4 15 -10 15 -5 0
-7 -7 -4 -15z"/>
<path d="M1223 6411 c-43 -27 -51 -46 -48 -117 3 -101 20 -108 88 -35 50 53
60 79 55 132 -3 30 -7 34 -33 37 -17 1 -44 -6 -62 -17z"/>
<path d="M1115 6120 c-14 -27 -23 -50 -20 -50 2 0 16 23 30 50 14 28 23 50 20
50 -2 0 -16 -22 -30 -50z"/>
<path d="M1046 6019 c-39 -46 -31 -56 9 -13 37 39 40 44 26 44 -5 0 -21 -14
-35 -31z"/>
<path d="M915 5980 c3 -5 8 -10 11 -10 2 0 4 5 4 10 0 6 -5 10 -11 10 -5 0 -7
-4 -4 -10z"/>
<path d="M860 5435 c0 -8 5 -15 10 -15 6 0 10 7 10 15 0 8 -4 15 -10 15 -5 0
-10 -7 -10 -15z"/>
<path d="M808 5220 c-7 -24 -3 -38 8 -28 3 4 4 17 2 30 l-3 23 -7 -25z"/>
<path d="M692 5093 c-6 -15 -14 -41 -17 -58 -6 -28 -6 -29 9 -11 16 20 32 83
24 92 -3 2 -10 -8 -16 -23z"/>
<path d="M736 5018 c-8 -13 -21 -39 -29 -58 -30 -73 -28 -83 6 -30 33 52 56
110 43 110 -3 0 -12 -10 -20 -22z"/>
<path d="M724 4895 c-18 -27 -12 -79 9 -72 15 4 36 67 30 84 -8 20 -21 16 -39
-12z"/>
<path d="M653 4848 c-5 -7 -6 -29 -3 -48 l6 -35 8 30 c4 17 10 38 13 48 5 20
-10 23 -24 5z"/>
<path d="M493 4770 c0 -25 2 -35 4 -22 2 12 2 32 0 45 -2 12 -4 2 -4 -23z"/>
<path d="M508 4360 c-3 -16 -1 -30 4 -30 4 0 8 14 8 30 0 17 -2 30 -4 30 -2 0
-6 -13 -8 -30z"/>
<path d="M699 4060 c-5 -310 2 -384 54 -581 39 -144 42 -151 75 -147 37 4 39
34 7 142 -14 49 -25 100 -25 115 0 15 -4 31 -9 37 -6 5 -20 59 -32 119 -12 61
-28 117 -35 126 -11 12 -16 73 -22 245 l-8 229 -5 -285z"/>
<path d="M574 4006 c-6 -17 12 -56 26 -56 6 0 10 9 10 19 0 43 -24 68 -36 37z"/>
<path d="M468 3950 c2 -16 6 -30 8 -30 2 0 4 14 4 30 0 17 -4 30 -8 30 -5 0
-7 -13 -4 -30z"/>
<path d="M896 3304 c-11 -28 -6 -48 25 -109 l30 -60 -4 65 c-6 90 -34 147 -51
104z"/>
<path d="M810 3296 c0 -24 26 -38 40 -22 6 9 9 20 5 26 -9 15 -45 12 -45 -4z"/>
<path d="M970 2997 c0 -25 44 -74 54 -59 3 5 0 25 -6 45 -13 43 -48 53 -48 14z"/>
<path d="M1042 2863 c-29 -11 -32 -41 -12 -107 24 -75 37 -86 107 -86 27 0 54
-5 60 -11 16 -16 27 30 20 78 -15 88 -106 154 -175 126z"/>
<path d="M970 2755 c0 -5 5 -17 10 -25 5 -8 10 -10 10 -5 0 6 -5 17 -10 25 -5
8 -10 11 -10 5z"/>
<path d="M1133 2583 c-9 -23 19 -67 45 -71 31 -5 34 38 5 71 -20 22 -42 22
-50 0z"/>
<path d="M1150 2444 c0 -6 7 -19 15 -30 8 -10 14 -14 14 -9 0 6 -6 19 -14 29
-8 11 -15 15 -15 10z"/>
<path d="M1227 2298 c59 -100 186 -263 210 -273 18 -6 43 11 43 31 0 23 -276
334 -296 334 -7 0 12 -42 43 -92z"/>
<path d="M2000 2180 c8 -5 20 -10 25 -10 6 0 3 5 -5 10 -8 5 -19 10 -25 10 -5
0 -3 -5 5 -10z"/>
<path d="M2061 2133 c19 -38 25 -99 11 -119 -4 -6 -14 -14 -22 -17 -8 -3 3 -6
26 -6 60 -1 104 -19 146 -59 43 -41 55 -39 32 6 -15 31 -44 54 -61 51 -4 -1
-28 3 -53 10 l-46 12 0 52 c0 33 -6 62 -18 80 -27 40 -37 33 -15 -10z"/>
<path d="M2127 2134 c-4 -4 -7 -12 -7 -18 0 -6 4 -5 9 2 6 11 17 11 51 2 23
-6 49 -9 57 -6 8 3 11 1 8 -4 -3 -5 17 -21 46 -35 57 -29 78 -30 24 0 -19 10
-35 22 -35 27 0 5 -4 6 -10 3 -6 -3 -7 1 -4 9 5 13 -2 16 -34 16 -22 0 -52 3
-68 6 -16 3 -32 2 -37 -2z"/>
<path d="M1830 2090 c0 -5 5 -10 10 -10 6 0 10 5 10 10 0 6 -4 10 -10 10 -5 0
-10 -4 -10 -10z"/>
<path d="M1910 2060 c0 -11 -7 -20 -16 -20 -8 0 -13 -4 -9 -9 3 -6 19 -2 38 9
39 22 74 12 83 -25 3 -14 10 -25 14 -25 5 0 3 16 -3 35 -6 19 -12 33 -14 31
-3 -2 -20 2 -38 10 -46 19 -55 18 -55 -6z"/>
<path d="M1370 2041 c0 -10 53 -51 66 -51 4 0 -5 14 -21 30 -29 30 -45 38 -45
21z"/>
<path d="M1262 1988 c-16 -16 -15 -23 4 -42 34 -34 70 0 38 35 -20 22 -26 23
-42 7z"/>
<path d="M1558 1945 c-11 -12 13 -64 39 -85 26 -20 53 -27 53 -12 -1 14 -85
104 -92 97z"/>
<path d="M1870 1846 c0 -8 5 -18 10 -21 6 -3 10 3 10 14 0 12 -4 21 -10 21 -5
0 -10 -6 -10 -14z"/>
<path d="M1611 1756 c-9 -11 -6 -12 14 -8 14 2 22 8 19 13 -8 13 -20 11 -33
-5z"/>
<path d="M2340 1766 c0 -4 7 -14 15 -22 8 -9 15 -11 15 -6 0 5 -7 15 -15 22
-8 7 -15 9 -15 6z"/>
<path d="M1440 1752 c0 -15 28 -47 35 -40 8 8 -13 48 -25 48 -6 0 -10 -4 -10
-8z"/>
<path d="M2242 1548 c6 -18 28 -21 28 -4 0 9 -7 16 -16 16 -9 0 -14 -5 -12
-12z"/>
<path d="M2700 1130 c-13 -24 2 -91 24 -109 11 -10 15 -8 18 6 2 10 -6 25 -17
35 -20 16 -20 16 4 41 23 26 22 47 -4 47 -8 0 -19 -9 -25 -20z"/>
<path d="M2764 1135 c-6 -15 2 -35 14 -35 4 0 13 4 21 9 12 8 12 12 2 25 -17
20 -30 20 -37 1z"/>
<path d="M2820 1020 c0 -5 5 -10 11 -10 5 0 7 5 4 10 -3 6 -8 10 -11 10 -2 0
-4 -4 -4 -10z"/>
<path d="M2870 1001 c0 -5 5 -13 10 -16 6 -3 10 -2 10 4 0 5 -4 13 -10 16 -5
3 -10 2 -10 -4z"/>
<path d="M2780 959 c0 -3 9 -14 20 -24 20 -18 20 -17 20 8 0 20 -5 25 -20 24
-11 -1 -20 -4 -20 -8z"/>
<path d="M7410 5965 c0 -9 9 -15 21 -15 18 0 19 2 9 15 -7 8 -16 15 -21 15 -5
0 -9 -7 -9 -15z"/>
<path d="M7800 5675 c-13 -16 -17 -117 -6 -151 7 -22 44 -44 75 -44 47 0 58
77 22 149 -29 56 -67 75 -91 46z"/>
<path d="M7946 5455 c4 -8 10 -15 15 -15 4 0 6 7 3 15 -4 8 -10 15 -15 15 -4
0 -6 -7 -3 -15z"/>
<path d="M7981 5165 c-1 -5 6 -30 13 -55 13 -40 15 -42 15 -15 0 17 -6 41 -14
55 -8 14 -14 21 -14 15z"/>
<path d="M8111 4585 c-1 -17 -3 -18 -11 -5 -8 12 -10 12 -10 -5 0 -24 16 -52
25 -43 4 3 5 21 2 40 -2 18 -5 24 -6 13z"/>
<path d="M8188 4180 c-5 -260 -2 -300 22 -308 11 -4 12 37 7 244 -9 350 -22
379 -29 64z"/>
<path d="M8392 3815 c0 -16 2 -22 5 -12 2 9 2 23 0 30 -3 6 -5 -1 -5 -18z"/>
<path d="M8086 3811 c-40 -15 -74 -205 -40 -218 26 -10 44 20 53 92 5 39 13
85 16 103 8 33 4 36 -29 23z"/>
<path d="M8061 3536 c-7 -8 -15 -30 -18 -50 -6 -39 9 -66 36 -66 18 0 51 57
51 88 0 38 -46 56 -69 28z"/>
<path d="M8183 3440 c1 -11 5 -20 9 -20 11 0 10 28 -1 35 -6 3 -9 -4 -8 -15z"/>
<path d="M8046 3384 c-4 -9 -4 -19 -1 -22 2 -3 7 3 11 12 4 9 4 19 1 22 -2 3
-7 -3 -11 -12z"/>
<path d="M7951 3338 c-10 -27 -1 -41 21 -33 17 7 30 40 20 49 -12 13 -33 5
-41 -16z"/>
<path d="M8017 3323 c-4 -3 -7 -15 -7 -25 0 -26 24 -17 28 10 3 21 -8 29 -21
15z"/>
<path d="M8176 3227 c3 -10 9 -15 12 -12 3 3 0 11 -7 18 -10 9 -11 8 -5 -6z"/>
<path d="M8015 3148 c-17 -37 -25 -71 -25 -110 0 -88 23 -76 65 36 29 77 32
111 9 120 -24 9 -23 10 -49 -46z"/>
<path d="M8178 3165 c-9 -20 -12 -38 -7 -40 7 -5 32 65 26 72 -2 1 -10 -13
-19 -32z"/>
<path d="M7957 3123 c-4 -3 -7 -13 -7 -22 1 -13 3 -13 11 2 11 19 8 33 -4 20z"/>
<path d="M7891 3045 c-17 -30 -41 -97 -41 -117 0 -5 9 -8 20 -8 15 0 28 14 45
53 28 59 32 92 11 100 -9 4 -22 -7 -35 -28z"/>
<path d="M7715 2855 c-106 -38 -141 -205 -43 -205 45 0 85 26 111 73 34 58 42
110 22 131 -20 19 -38 20 -90 1z"/>
<path d="M7857 2853 c-3 -10 -8 -31 -12 -48 -3 -16 -20 -63 -36 -103 -17 -41
-28 -76 -26 -78 9 -9 61 63 89 123 32 67 34 116 6 121 -9 2 -18 -5 -21 -15z"/>
<path d="M7668 2573 c-23 -27 -28 -49 -15 -68 16 -21 44 -11 61 24 25 47 -13
82 -46 44z"/>
<path d="M7698 2410 c-22 -40 -39 -55 -86 -79 -78 -39 -327 -299 -317 -331 3
-11 13 -20 21 -20 25 0 181 152 250 245 20 28 56 70 79 95 43 46 102 140 88
140 -4 0 -20 -23 -35 -50z"/>
<path d="M7600 2440 c0 -5 4 -10 9 -10 6 0 13 5 16 10 3 6 -1 10 -9 10 -9 0
-16 -4 -16 -10z"/>
<path d="M7745 2080 c-13 -15 -15 -24 -8 -31 15 -15 55 7 51 28 -5 25 -22 26
-43 3z"/>
<path d="M7528 1999 c-21 -17 -38 -37 -38 -45 0 -23 38 -16 70 14 27 23 29 29
18 44 -12 16 -16 15 -50 -13z"/>
<path d="M7710 2021 c0 -6 5 -13 10 -16 6 -3 10 1 10 9 0 9 -4 16 -10 16 -5 0
-10 -4 -10 -9z"/>
<path d="M7603 1959 c-7 -7 -13 -22 -13 -33 0 -19 1 -19 16 -4 9 8 14 23 12
32 -2 14 -5 15 -15 5z"/>
<path d="M7207 1930 c-19 -31 -11 -38 24 -20 21 12 26 50 6 50 -7 0 -21 -13
-30 -30z"/>
<path d="M6988 1862 c-33 -20 -35 -28 -9 -42 16 -8 26 -5 50 16 17 14 31 30
31 35 0 15 -43 10 -72 -9z"/>
<path d="M7474 1865 c-32 -13 -50 -32 -41 -42 6 -6 75 25 82 38 10 15 -10 17
-41 4z"/>
<path d="M7159 1853 c-13 -16 -12 -17 4 -4 16 13 21 21 13 21 -2 0 -10 -8 -17
-17z"/>
<path d="M7351 1801 c-8 -5 -10 -14 -6 -21 6 -9 10 -8 17 4 12 21 7 28 -11 17z"/>
<path d="M2985 5660 c-19 -7 -19 -7 0 -18 18 -10 19 -11 2 -12 -10 0 -15 -5
-12 -10 8 -13 22 -5 35 20 12 22 2 30 -25 20z"/>
<path d="M2859 5585 c-72 -39 -60 -180 20 -248 71 -60 229 -76 237 -24 2 15
-1 15 -25 2 -25 -12 -30 -12 -44 3 -11 11 -17 12 -17 4 0 -9 -5 -10 -19 -3
-10 6 -22 7 -26 3 -4 -4 -6 0 -3 8 3 9 17 15 34 15 16 0 35 4 43 9 10 7 12 6
6 -3 -5 -9 0 -12 16 -9 34 4 31 34 -3 30 -31 -3 -45 13 -28 33 14 17 85 21 75
5 -3 -5 0 -7 8 -4 20 7 29 45 16 61 -8 8 -17 10 -29 3 -21 -11 -40 5 -40 37 0
13 -4 23 -8 23 -4 0 -14 16 -21 35 -15 42 -24 43 -56 9 -28 -31 -60 -29 -59 4
0 17 -5 22 -25 22 -14 -1 -38 -7 -52 -15z m286 -136 c-4 -5 -16 -9 -28 -9 -20
0 -20 0 -2 14 21 15 40 12 30 -5z m-140 -139 c3 -5 -1 -10 -10 -10 -9 0 -13 5
-10 10 3 6 8 10 10 10 2 0 7 -4 10 -10z"/>
<path d="M1090 5372 c0 -6 -8 -13 -17 -15 -16 -4 -16 -5 -1 -6 18 -1 34 16 24
26 -3 4 -6 1 -6 -5z"/>
<path d="M1112 5350 c0 -14 2 -19 5 -12 2 6 2 18 0 25 -3 6 -5 1 -5 -13z"/>
<path d="M2484 4924 c-19 -19 -34 -40 -34 -45 0 -5 19 -8 42 -7 37 1 45 -3 75
-37 27 -32 35 -36 48 -25 20 16 19 70 -1 99 -14 20 -69 51 -90 51 -4 0 -22
-16 -40 -36z"/>
<path d="M7065 4630 c-3 -6 6 -15 21 -20 15 -6 31 -13 35 -16 15 -9 10 14 -7
30 -18 18 -40 21 -49 6z"/>
<path d="M7671 4113 c-37 -7 -68 -31 -90 -69 -30 -50 -1 -45 49 8 37 41 41 42
110 46 46 3 67 8 59 13 -14 9 -85 10 -128 2z"/>
<path d="M7471 4029 c-32 -43 -22 -56 11 -15 16 19 24 37 20 40 -5 3 -19 -8
-31 -25z"/>
<path d="M7830 3970 c-8 -5 -10 -10 -5 -10 6 0 17 5 25 10 8 5 11 10 5 10 -5
0 -17 -5 -25 -10z"/>
<path d="M7362 3808 c-34 -22 -39 -28 -19 -28 14 1 62 38 56 45 -3 2 -19 -5
-37 -17z"/>
<path d="M7335 3745 c-3 -11 -11 -31 -16 -44 -16 -38 -3 -35 15 4 10 20 15 41
13 48 -3 7 -8 4 -12 -8z"/>
<path d="M7760 3220 c-18 -12 -2 -12 25 0 13 6 15 9 5 9 -8 0 -22 -4 -30 -9z"/>
<path d="M7560 3120 c8 -5 29 -9 45 -9 29 1 29 1 5 9 -14 4 -34 8 -45 9 -16 1
-17 -1 -5 -9z"/>
<path d="M7390 3049 c0 -5 5 -7 10 -4 6 3 10 8 10 11 0 2 -4 4 -10 4 -5 0 -10
-5 -10 -11z"/>
<path d="M7128 2293 c6 -2 18 -2 25 0 6 3 1 5 -13 5 -14 0 -19 -2 -12 -5z"/>
<path d="M7183 2293 c9 -2 23 -2 30 0 6 3 -1 5 -18 5 -16 0 -22 -2 -12 -5z"/>
<path d="M5970 1839 c0 -5 5 -7 10 -4 6 3 10 8 10 11 0 2 -4 4 -10 4 -5 0 -10
-5 -10 -11z"/>
<path d="M3355 1470 c3 -5 8 -10 11 -10 2 0 4 5 4 10 0 6 -5 10 -11 10 -5 0
-7 -4 -4 -10z"/>
<path d="M4077 1456 c-42 -26 -63 -44 -31 -28 12 6 23 9 26 7 3 -3 15 6 28 20
29 31 25 31 -23 1z"/>
<path d="M4889 1298 c-12 -23 -12 -23 10 -4 23 21 26 26 11 26 -5 0 -15 -10
-21 -22z"/>
<path d="M5275 1300 c-3 -6 1 -7 9 -4 18 7 21 14 7 14 -6 0 -13 -4 -16 -10z"/>
<path d="M7670 965 c7 -8 17 -15 22 -15 6 0 5 7 -2 15 -7 8 -17 15 -22 15 -6
0 -5 -7 2 -15z"/>
<path d="M7770 910 c0 -20 50 -62 66 -56 9 3 22 6 29 6 11 0 11 6 -1 30 -13
26 -21 30 -55 30 -21 0 -39 -5 -39 -10z"/>
<path d="M1370 966 c0 -17 14 -29 23 -20 8 8 -3 34 -14 34 -5 0 -9 -6 -9 -14z"/>
<path d="M1251 941 c-17 -31 5 -40 56 -20 27 10 27 11 9 25 -27 19 -53 18 -65
-5z"/>
<path d="M1179 913 c-12 -15 -12 -16 4 -10 10 4 23 7 28 7 6 0 7 5 4 10 -9 15
-21 12 -36 -7z"/>
<path d="M1372 898 c6 -18 28 -21 28 -4 0 9 -7 16 -16 16 -9 0 -14 -5 -12 -12z"/>
<path d="M1143 863 c9 -2 23 -2 30 0 6 3 -1 5 -18 5 -16 0 -22 -2 -12 -5z"/>
<path d="M1317 833 c-12 -12 -7 -22 8 -17 8 4 15 10 15 15 0 11 -14 12 -23 2z"/>
<path d="M1220 780 c0 -5 5 -10 10 -10 6 0 10 5 10 10 0 6 -4 10 -10 10 -5 0
-10 -4 -10 -10z"/>
<path d="M833 723 c-22 -8 -14 -33 10 -33 23 0 47 17 47 32 0 9 -37 10 -57 1z"/>
</g>
</svg>
